ISO-10303-21;
HEADER;
FILE_DESCRIPTION (( 'STEP AP214' ),
    '1' );
FILE_NAME ('Lid.STEP',
    '2026-07-07T00:46:47',
    ( '' ),
    ( '' ),
    'SwSTEP 2.0',
    'SolidWorks 2025',
    '' );
FILE_SCHEMA (( 'AUTOMOTIVE_DESIGN' ));
ENDSEC;

DATA;
#1 = ORIENTED_EDGE ( 'NONE', *, *, #294, .T. ) ;
#2 = DIRECTION ( 'NONE',  ( 0.000000000000000000, 1.000000000000000000, 0.000000000000000000 ) ) ;
#3 = ORIENTED_EDGE ( 'NONE', *, *, #516, .T. ) ;
#4 = CARTESIAN_POINT ( 'NONE',  ( 107.0000000000001137, 18.80000000000000071, -17.00000000000000000 ) ) ;
#5 = VECTOR ( 'NONE', #115, 1000.000000000000000 ) ;
#6 = VECTOR ( 'NONE', #339, 1000.000000000000000 ) ;
#7 = VECTOR ( 'NONE', #368, 1000.000000000000000 ) ;
#8 = ORIENTED_EDGE ( 'NONE', *, *, #780, .T. ) ;
#9 = DIRECTION ( 'NONE',  ( 0.000000000000000000, 0.000000000000000000, 1.000000000000000000 ) ) ;
#10 = EDGE_CURVE ( 'NONE', #730, #530, #839, .T. ) ;
#11 = DIRECTION ( 'NONE',  ( 0.000000000000000000, 1.000000000000000000, -0.000000000000000000 ) ) ;
#12 = ORIENTED_EDGE ( 'NONE', *, *, #514, .F. ) ;
#13 = DIRECTION ( 'NONE',  ( 0.000000000000000000, 0.000000000000000000, 1.000000000000000000 ) ) ;
#14 = DIRECTION ( 'NONE',  ( 0.000000000000000000, 0.000000000000000000, 1.000000000000000000 ) ) ;
#15 = ORIENTED_EDGE ( 'NONE', *, *, #128, .F. ) ;
#16 = DIRECTION ( 'NONE',  ( -0.000000000000000000, -1.000000000000000000, -0.000000000000000000 ) ) ;
#17 = CARTESIAN_POINT ( 'NONE',  ( 95.00000000000011369, 15.00000000000000000, -22.00000000000000000 ) ) ;
#18 = DIRECTION ( 'NONE',  ( 0.000000000000000000, 1.000000000000000000, 0.000000000000000000 ) ) ;
#19 = EDGE_CURVE ( 'NONE', #525, #819, #317, .T. ) ;
#20 = VECTOR ( 'NONE', #463, 1000.000000000000000 ) ;
#21 = VECTOR ( 'NONE', #246, 1000.000000000000000 ) ;
#22 = AXIS2_PLACEMENT_3D ( 'NONE', #212, #382, #538 ) ;
#23 = EDGE_CURVE ( 'NONE', #694, #672, #571, .T. ) ;
#24 = LINE ( 'NONE', #177, #800 ) ;
#25 = CARTESIAN_POINT ( 'NONE',  ( 7.500000000000074607, 15.00000000000000000, 0.000000000000000000 ) ) ;
#26 = ORIENTED_EDGE ( 'NONE', *, *, #226, .T. ) ;
#27 = DIRECTION ( 'NONE',  ( 0.000000000000000000, 0.000000000000000000, -1.000000000000000000 ) ) ;
#28 = VERTEX_POINT ( 'NONE', #628 ) ;
#29 = CARTESIAN_POINT ( 'NONE',  ( 0.000000000000000000, 0.000000000000000000, 0.000000000000000000 ) ) ;
#30 = AXIS2_PLACEMENT_3D ( 'NONE', #399, #249, #14 ) ;
#31 = AXIS2_PLACEMENT_3D ( 'NONE', #345, #419, #654 ) ;
#32 = ORIENTED_EDGE ( 'NONE', *, *, #82, .T. ) ;
#33 = CIRCLE ( 'NONE', #401, 7.500000000000004441 ) ;
#34 = DIRECTION ( 'NONE',  ( 0.000000000000000000, 0.000000000000000000, 1.000000000000000000 ) ) ;
#35 = PRODUCT_DEFINITION_CONTEXT ( 'detailed design', #910, 'design' ) ;
#36 = EDGE_CURVE ( 'NONE', #951, #694, #332, .T. ) ;
#37 = LINE ( 'NONE', #690, #6 ) ;
#38 = DIRECTION ( 'NONE',  ( -0.000000000000000000, -1.000000000000000000, -0.000000000000000000 ) ) ;
#39 = DIRECTION ( 'NONE',  ( -1.000000000000000000, 0.000000000000000000, 0.000000000000000000 ) ) ;
#40 = SPHERICAL_SURFACE ( 'NONE', #606, 7.500000000000000000 ) ;
#41 = DIRECTION ( 'NONE',  ( 0.000000000000000000, 0.000000000000000000, -1.000000000000000000 ) ) ;
#42 = PLANE ( 'NONE',  #428 ) ;
#43 = CARTESIAN_POINT ( 'NONE',  ( 5.000000000000058620, 15.00000000000000000, -5.000000000000000000 ) ) ;
#44 = EDGE_CURVE ( 'NONE', #299, #694, #104, .T. ) ;
#45 = VECTOR ( 'NONE', #661, 1000.000000000000000 ) ;
#46 = DIRECTION ( 'NONE',  ( 1.000000000000000000, 0.000000000000000000, 0.000000000000000000 ) ) ;
#47 = FACE_OUTER_BOUND ( 'NONE', #244, .T. ) ;
#48 = CIRCLE ( 'NONE', #22, 7.500000000000000000 ) ;
#49 = ORIENTED_EDGE ( 'NONE', *, *, #190, .T. ) ;
#50 = PRODUCT_DEFINITION_SHAPE ( 'NONE', 'NONE',  #402 ) ;
#51 = DIRECTION ( 'NONE',  ( 1.000000000000000000, 0.000000000000000000, -0.000000000000000000 ) ) ;
#52 = CARTESIAN_POINT ( 'NONE',  ( 0.000000000000000000, 18.80000000000000071, 0.000000000000000000 ) ) ;
#53 = DIRECTION ( 'NONE',  ( 0.000000000000000000, 0.000000000000000000, -1.000000000000000000 ) ) ;
#54 = CARTESIAN_POINT ( 'NONE',  ( 5.000000000000052403, 15.00000000000000000, -7.500000000000056843 ) ) ;
#55 = VERTEX_POINT ( 'NONE', #700 ) ;
#56 = DIRECTION ( 'NONE',  ( -1.000000000000000000, 0.000000000000000000, -9.598803233738332063E-15 ) ) ;
#57 = EDGE_CURVE ( 'NONE', #464, #130, #264, .T. ) ;
#58 = CARTESIAN_POINT ( 'NONE',  ( 7.500000000000055955, 15.00000000000000000, -19.50000000000002487 ) ) ;
#59 = VERTEX_POINT ( 'NONE', #324 ) ;
#60 = EDGE_CURVE ( 'NONE', #126, #819, #319, .T. ) ;
#61 = DIRECTION ( 'NONE',  ( 1.000000000000000000, 0.000000000000000000, 0.000000000000000000 ) ) ;
#62 = ORIENTED_EDGE ( 'NONE', *, *, #371, .F. ) ;
#63 = FACE_OUTER_BOUND ( 'NONE', #410, .T. ) ;
#64 = AXIS2_PLACEMENT_3D ( 'NONE', #557, #782, #314 ) ;
#65 = FACE_BOUND ( 'NONE', #89, .T. ) ;
#66 = ORIENTED_EDGE ( 'NONE', *, *, #167, .T. ) ;
#67 = AXIS2_PLACEMENT_3D ( 'NONE', #605, #154, #601 ) ;
#68 = CARTESIAN_POINT ( 'NONE',  ( 129.9999999999999432, 15.00000000000000000, -7.499999999999998224 ) ) ;
#69 = AXIS2_PLACEMENT_3D ( 'NONE', #149, #2, #752 ) ;
#70 = EDGE_LOOP ( 'NONE', ( #32, #614, #462, #204 ) ) ;
#71 = DIRECTION ( 'NONE',  ( 0.000000000000000000, -0.8448190755542281938, 0.5350520811843453295 ) ) ;
#72 = CARTESIAN_POINT ( 'NONE',  ( 122.4999999999999858, 15.00000000000000000, -27.00000000000002487 ) ) ;
#73 = EDGE_LOOP ( 'NONE', ( #640, #746, #701, #518 ) ) ;
#74 = DIRECTION ( 'NONE',  ( -0.000000000000000000, 1.000000000000000000, -0.000000000000000000 ) ) ;
#75 = PLANE ( 'NONE',  #777 ) ;
#76 = ORIENTED_EDGE ( 'NONE', *, *, #60, .T. ) ;
#77 = DIRECTION ( 'NONE',  ( 0.000000000000000000, -0.000000000000000000, 1.000000000000000000 ) ) ;
#78 = EDGE_LOOP ( 'NONE', ( #932, #970 ) ) ;
#79 = DIRECTION ( 'NONE',  ( -2.988138189919538562E-15, 0.000000000000000000, 1.000000000000000000 ) ) ;
#80 = LINE ( 'NONE', #750, #333 ) ;
#81 = EDGE_LOOP ( 'NONE', ( #801, #135, #238, #887 ) ) ;
#82 = EDGE_CURVE ( 'NONE', #169, #584, #487, .T. ) ;
#83 = DIRECTION ( 'NONE',  ( 2.988138189919538562E-15, 0.000000000000000000, -1.000000000000000000 ) ) ;
#84 = ORIENTED_EDGE ( 'NONE', *, *, #526, .F. ) ;
#85 = DIRECTION ( 'NONE',  ( 1.000000000000000000, 0.000000000000000000, 0.000000000000000000 ) ) ;
#86 = VECTOR ( 'NONE', #927, 1000.000000000000000 ) ;
#87 = AXIS2_PLACEMENT_3D ( 'NONE', #245, #482, #9 ) ;
#88 = CARTESIAN_POINT ( 'NONE',  ( 130.0000000000000284, 15.00000000000000000, -19.49999999999991829 ) ) ;
#89 = EDGE_LOOP ( 'NONE', ( #835, #427, #855, #150 ) ) ;
#90 = DIRECTION ( 'NONE',  ( 0.000000000000000000, 0.000000000000000000, 1.000000000000000000 ) ) ;
#91 = ORIENTED_EDGE ( 'NONE', *, *, #832, .F. ) ;
#92 = ORIENTED_EDGE ( 'NONE', *, *, #479, .T. ) ;
#93 = EDGE_CURVE ( 'NONE', #376, #176, #920, .T. ) ;
#94 = DIRECTION ( 'NONE',  ( 0.000000000000000000, 1.000000000000000000, 0.000000000000000000 ) ) ;
#95 = CARTESIAN_POINT ( 'NONE',  ( 122.4999999999999432, 7.500000000000000000, -7.499999999999999112 ) ) ;
#96 = EDGE_CURVE ( 'NONE', #655, #921, #99, .T. ) ;
#97 = ORIENTED_EDGE ( 'NONE', *, *, #961, .F. ) ;
#98 = CARTESIAN_POINT ( 'NONE',  ( 2.168404344971008868E-14, 7.500000000000000000, -7.500000000000072831 ) ) ;
#99 = LINE ( 'NONE', #691, #953 ) ;
#100 = VECTOR ( 'NONE', #396, 1000.000000000000000 ) ;
#101 = AXIS2_PLACEMENT_3D ( 'NONE', #435, #281, #962 ) ;
#102 = ORIENTED_EDGE ( 'NONE', *, *, #859, .F. ) ;
#103 = DIRECTION ( 'NONE',  ( 0.000000000000000000, 0.000000000000000000, 1.000000000000000000 ) ) ;
#104 = LINE ( 'NONE', #180, #446 ) ;
#105 = EDGE_LOOP ( 'NONE', ( #891, #706, #393, #681 ) ) ;
#106 = DIRECTION ( 'NONE',  ( -0.000000000000000000, -1.000000000000000000, -0.000000000000000000 ) ) ;
#107 = ORIENTED_EDGE ( 'NONE', *, *, #441, .T. ) ;
#108 = EDGE_CURVE ( 'NONE', #141, #584, #543, .T. ) ;
#109 = CYLINDRICAL_SURFACE ( 'NONE', #201, 7.500000000000000000 ) ;
#110 = AXIS2_PLACEMENT_3D ( 'NONE', #43, #867, #515 ) ;
#111 = FACE_OUTER_BOUND ( 'NONE', #815, .T. ) ;
#112 = DIRECTION ( 'NONE',  ( -0.000000000000000000, 1.000000000000000000, -0.000000000000000000 ) ) ;
#113 = CARTESIAN_POINT ( 'NONE',  ( 7.500000000000074607, 7.500000000000000000, 0.000000000000000000 ) ) ;
#114 = CYLINDRICAL_SURFACE ( 'NONE', #802, 2.999999999999999112 ) ;
#115 = DIRECTION ( 'NONE',  ( 1.000000000000000000, 0.000000000000000000, 0.000000000000000000 ) ) ;
#116 = ADVANCED_FACE ( 'NONE', ( #178 ), #631, .T. ) ;
#117 = DIRECTION ( 'NONE',  ( -1.000000000000000000, 0.000000000000000000, 0.000000000000000000 ) ) ;
#118 = CARTESIAN_POINT ( 'NONE',  ( 5.000000000000037303, 15.00000000000000000, -2.799999999999999822 ) ) ;
#119 = PLANE ( 'NONE',  #280 ) ;
#120 = ORIENTED_EDGE ( 'NONE', *, *, #168, .F. ) ;
#121 = CARTESIAN_POINT ( 'NONE',  ( 95.00000000000011369, 23.80000000000000071, -13.99999999999999822 ) ) ;
#122 = VECTOR ( 'NONE', #869, 1000.000000000000000 ) ;
#123 = CARTESIAN_POINT ( 'NONE',  ( 7.500000000000021316, 7.500000000000000000, -7.500000000000000888 ) ) ;
#124 = FACE_OUTER_BOUND ( 'NONE', #846, .T. ) ;
#125 = VECTOR ( 'NONE', #79, 1000.000000000000000 ) ;
#126 = VERTEX_POINT ( 'NONE', #409 ) ;
#127 = CARTESIAN_POINT ( 'NONE',  ( 7.500000000000111022, 15.00000000000000000, -27.00000000000002487 ) ) ;
#128 = EDGE_CURVE ( 'NONE', #595, #951, #697, .T. ) ;
#129 = LINE ( 'NONE', #436, #724 ) ;
#130 = VERTEX_POINT ( 'NONE', #483 ) ;
#131 = ORIENTED_EDGE ( 'NONE', *, *, #689, .F. ) ;
#132 = DIRECTION ( 'NONE',  ( 9.598803233738332063E-15, 0.000000000000000000, -1.000000000000000000 ) ) ;
#133 = MANIFOLD_SOLID_BREP ( 'Boss-Extrude4', #383 ) ;
#134 = CARTESIAN_POINT ( 'NONE',  ( 107.0000000000001137, 23.80000000000000071, -13.99999999999999822 ) ) ;
#135 = ORIENTED_EDGE ( 'NONE', *, *, #23, .T. ) ;
#136 = CARTESIAN_POINT ( 'NONE',  ( 2.168404344971008868E-14, 9.999999999999980460, -7.500000000000072831 ) ) ;
#137 = ORIENTED_EDGE ( 'NONE', *, *, #923, .F. ) ;
#138 = CARTESIAN_POINT ( 'NONE',  ( 0.000000000000000000, 23.80000000000000071, 0.000000000000000000 ) ) ;
#139 =( GEOMETRIC_REPRESENTATION_CONTEXT ( 3 ) GLOBAL_UNCERTAINTY_ASSIGNED_CONTEXT ( ( #406 ) ) GLOBAL_UNIT_ASSIGNED_CONTEXT ( ( #767, #636, #471 ) ) REPRESENTATION_CONTEXT ( 'NONE', 'WORKASPACE' ) );
#140 = CARTESIAN_POINT ( 'NONE',  ( 5.826869470343097592E-14, 9.999999999999980460, -19.49999999999999289 ) ) ;
#141 = VERTEX_POINT ( 'NONE', #771 ) ;
#142 = AXIS2_PLACEMENT_3D ( 'NONE', #313, #862, #387 ) ;
#143 = AXIS2_PLACEMENT_3D ( 'NONE', #851, #235, #542 ) ;
#144 = LINE ( 'NONE', #68, #7 ) ;
#145 = AXIS2_PLACEMENT_3D ( 'NONE', #968, #894, #147 ) ;
#146 = VECTOR ( 'NONE', #613, 1000.000000000000000 ) ;
#147 = DIRECTION ( 'NONE',  ( 0.000000000000000000, 0.000000000000000000, -1.000000000000000000 ) ) ;
#148 = ORIENTED_EDGE ( 'NONE', *, *, #874, .T. ) ;
#149 = CARTESIAN_POINT ( 'NONE',  ( 5.000000000000058620, 15.00000000000000000, -22.00000000000002132 ) ) ;
#150 = ORIENTED_EDGE ( 'NONE', *, *, #315, .F. ) ;
#151 = DIRECTION ( 'NONE',  ( 0.000000000000000000, 0.000000000000000000, 1.000000000000000000 ) ) ;
#152 = EDGE_CURVE ( 'NONE', #530, #299, #527, .T. ) ;
#153 = EDGE_CURVE ( 'NONE', #456, #537, #481, .T. ) ;
#154 = DIRECTION ( 'NONE',  ( -0.7071067811865466846, 0.7071067811865483499, -2.112932777214598894E-15 ) ) ;
#155 = ORIENTED_EDGE ( 'NONE', *, *, #587, .F. ) ;
#156 = LINE ( 'NONE', #239, #803 ) ;
#157 = ORIENTED_EDGE ( 'NONE', *, *, #326, .F. ) ;
#158 = CARTESIAN_POINT ( 'NONE',  ( 0.5999999999999540146, 10.59999999999986109, -24.20000000000011298 ) ) ;
#159 = DIRECTION ( 'NONE',  ( 1.000000000000000000, 0.000000000000000000, 0.000000000000000000 ) ) ;
#160 = ORIENTED_EDGE ( 'NONE', *, *, #236, .F. ) ;
#161 = COLOUR_RGB ( '',0.7921568627450980005, 0.8196078431372548767, 0.9333333333333333481 ) ;
#162 = CARTESIAN_POINT ( 'NONE',  ( 7.500000000000055955, 0.000000000000000000, -19.50000000000002487 ) ) ;
#163 = FILL_AREA_STYLE ('',( #925 ) ) ;
#164 = VECTOR ( 'NONE', #685, 1000.000000000000000 ) ;
#165 = VECTOR ( 'NONE', #827, 1000.000000000000000 ) ;
#166 = VECTOR ( 'NONE', #159, 1000.000000000000000 ) ;
#167 = EDGE_CURVE ( 'NONE', #525, #28, #944, .T. ) ;
#168 = EDGE_CURVE ( 'NONE', #464, #292, #272, .T. ) ;
#169 = VERTEX_POINT ( 'NONE', #414 ) ;
#170 = ADVANCED_FACE ( 'NONE', ( #255 ), #109, .T. ) ;
#171 = LINE ( 'NONE', #318, #623 ) ;
#172 = PRESENTATION_STYLE_ASSIGNMENT (( #242 ) ) ;
#173 = ORIENTED_EDGE ( 'NONE', *, *, #153, .T. ) ;
#174 = CARTESIAN_POINT ( 'NONE',  ( 7.500000000000055955, 7.500000000000000000, -27.00000000000002487 ) ) ;
#175 = DIRECTION ( 'NONE',  ( 0.000000000000000000, 0.000000000000000000, -1.000000000000000000 ) ) ;
#176 = VERTEX_POINT ( 'NONE', #872 ) ;
#177 = CARTESIAN_POINT ( 'NONE',  ( 5.000000000000052403, 15.00000000000000000, -7.500000000000056843 ) ) ;
#178 = FACE_OUTER_BOUND ( 'NONE', #758, .T. ) ;
#179 = ORIENTED_EDGE ( 'NONE', *, *, #666, .F. ) ;
#180 = CARTESIAN_POINT ( 'NONE',  ( 130.0000000000000284, 7.500000000000000000, -19.49999999999991829 ) ) ;
#181 = ADVANCED_FACE ( 'NONE', ( #493 ), #500, .T. ) ;
#182 = ORIENTED_EDGE ( 'NONE', *, *, #817, .T. ) ;
#183 = CARTESIAN_POINT ( 'NONE',  ( 122.5000000000000426, 0.000000000000000000, -19.50000000000002487 ) ) ;
#184 = EDGE_LOOP ( 'NONE', ( #357, #733, #390, #769 ) ) ;
#185 = CARTESIAN_POINT ( 'NONE',  ( 5.000000000000108358, 15.00000000000000000, -26.57106781186551459 ) ) ;
#186 = AXIS2_PLACEMENT_3D ( 'NONE', #914, #426, #34 ) ;
#187 = FACE_OUTER_BOUND ( 'NONE', #480, .T. ) ;
#188 = ADVANCED_FACE ( 'NONE', ( #795 ), #119, .F. ) ;
#189 = AXIS2_PLACEMENT_3D ( 'NONE', #712, #583, #662 ) ;
#190 = EDGE_CURVE ( 'NONE', #141, #312, #644, .T. ) ;
#191 = PLANE ( 'NONE',  #588 ) ;
#192 = EDGE_CURVE ( 'NONE', #540, #796, #879, .T. ) ;
#193 = DIRECTION ( 'NONE',  ( 2.988138189919538562E-15, 0.000000000000000000, -1.000000000000000000 ) ) ;
#194 = FACE_OUTER_BOUND ( 'NONE', #290, .T. ) ;
#195 = CARTESIAN_POINT ( 'NONE',  ( 5.000000000000058620, 4.999999999999999112, -5.000000000000000000 ) ) ;
#196 = CARTESIAN_POINT ( 'NONE',  ( 7.500000000000055955, 15.00000000000000000, -27.00000000000002487 ) ) ;
#197 = CARTESIAN_POINT ( 'NONE',  ( 95.00000000000011369, 15.00000000000000000, -22.00000000000000000 ) ) ;
#198 = CARTESIAN_POINT ( 'NONE',  ( 5.826869470343097592E-14, 9.999999999999980460, -19.49999999999999289 ) ) ;
#199 = ORIENTED_EDGE ( 'NONE', *, *, #620, .F. ) ;
#200 = LINE ( 'NONE', #731, #637 ) ;
#201 = AXIS2_PLACEMENT_3D ( 'NONE', #576, #39, #708 ) ;
#202 = CIRCLE ( 'NONE', #956, 7.500000000000000000 ) ;
#203 = DIRECTION ( 'NONE',  ( 0.000000000000000000, 0.000000000000000000, 1.000000000000000000 ) ) ;
#204 = ORIENTED_EDGE ( 'NONE', *, *, #704, .F. ) ;
#205 = AXIS2_PLACEMENT_3D ( 'NONE', #58, #579, #943 ) ;
#206 = CARTESIAN_POINT ( 'NONE',  ( 95.00000000000011369, 20.80000000000000426, -19.00000000000000000 ) ) ;
#207 = ORIENTED_EDGE ( 'NONE', *, *, #168, .T. ) ;
#208 = CYLINDRICAL_SURFACE ( 'NONE', #650, 2.200000000000000622 ) ;
#209 = ADVANCED_FACE ( 'NONE', ( #47 ), #336, .F. ) ;
#210 = DIRECTION ( 'NONE',  ( 0.000000000000000000, 1.000000000000000000, 0.000000000000000000 ) ) ;
#211 = EDGE_LOOP ( 'NONE', ( #155, #674, #688, #367 ) ) ;
#212 = CARTESIAN_POINT ( 'NONE',  ( 122.4999999999999432, 7.500000000000000000, -7.499999999999995559 ) ) ;
#213 = ORIENTED_EDGE ( 'NONE', *, *, #639, .F. ) ;
#214 = DIRECTION ( 'NONE',  ( 0.000000000000000000, 1.000000000000000000, -0.000000000000000000 ) ) ;
#215 = DIRECTION ( 'NONE',  ( 0.000000000000000000, 1.000000000000000000, 0.000000000000000000 ) ) ;
#216 = ORIENTED_EDGE ( 'NONE', *, *, #82, .F. ) ;
#217 = CARTESIAN_POINT ( 'NONE',  ( 107.0000000000001137, 15.00000000000000000, -20.00000000000000000 ) ) ;
#218 = ORIENTED_EDGE ( 'NONE', *, *, #412, .F. ) ;
#219 = CARTESIAN_POINT ( 'NONE',  ( 5.000000000000058620, 4.999999999999999112, -19.80000000000002203 ) ) ;
#220 = ORIENTED_EDGE ( 'NONE', *, *, #108, .T. ) ;
#221 = MECHANICAL_DESIGN_GEOMETRIC_PRESENTATION_REPRESENTATION (  '', ( #622 ), #139 ) ;
#222 = LINE ( 'NONE', #384, #146 ) ;
#223 = VERTEX_POINT ( 'NONE', #721 ) ;
#224 = PRODUCT_RELATED_PRODUCT_CATEGORY ( 'part', '', ( #503 ) ) ;
#225 = DIRECTION ( 'NONE',  ( 0.000000000000000000, 1.000000000000000000, 0.000000000000000000 ) ) ;
#226 = EDGE_CURVE ( 'NONE', #655, #130, #814, .T. ) ;
#227 = CARTESIAN_POINT ( 'NONE',  ( 95.00000000000011369, 23.80000000000000071, -22.00000000000000000 ) ) ;
#228 = EDGE_LOOP ( 'NONE', ( #218, #220, #753 ) ) ;
#229 = PLANE ( 'NONE',  #335 ) ;
#230 = ORIENTED_EDGE ( 'NONE', *, *, #93, .F. ) ;
#231 = LINE ( 'NONE', #4, #470 ) ;
#232 = DIRECTION ( 'NONE',  ( -0.000000000000000000, -0.000000000000000000, -1.000000000000000000 ) ) ;
#233 = ORIENTED_EDGE ( 'NONE', *, *, #226, .F. ) ;
#234 = DIRECTION ( 'NONE',  ( -2.988138189919538562E-15, 0.000000000000000000, 1.000000000000000000 ) ) ;
#235 = DIRECTION ( 'NONE',  ( 0.000000000000000000, 1.000000000000000000, 0.000000000000000000 ) ) ;
#236 = EDGE_CURVE ( 'NONE', #292, #921, #303, .T. ) ;
#237 = EDGE_CURVE ( 'NONE', #312, #921, #545, .T. ) ;
#238 = ORIENTED_EDGE ( 'NONE', *, *, #539, .F. ) ;
#239 = CARTESIAN_POINT ( 'NONE',  ( 107.0000000000001137, 23.80000000000000071, -22.00000000000000000 ) ) ;
#240 = ORIENTED_EDGE ( 'NONE', *, *, #403, .T. ) ;
#241 = CARTESIAN_POINT ( 'NONE',  ( 5.000000000000051514, 15.00000000000000000, -7.200000000000000178 ) ) ;
#242 = SURFACE_STYLE_USAGE ( .BOTH. , #329 ) ;
#243 = VECTOR ( 'NONE', #398, 1000.000000000000000 ) ;
#244 = EDGE_LOOP ( 'NONE', ( #250, #443, #240, #8 ) ) ;
#245 = CARTESIAN_POINT ( 'NONE',  ( 122.4999999999999432, 7.500000000000000000, -7.499999999999999112 ) ) ;
#246 = DIRECTION ( 'NONE',  ( -0.000000000000000000, -1.000000000000000000, -0.000000000000000000 ) ) ;
#247 = ORIENTED_EDGE ( 'NONE', *, *, #564, .T. ) ;
#248 = FACE_OUTER_BOUND ( 'NONE', #276, .T. ) ;
#249 = DIRECTION ( 'NONE',  ( -1.000000000000000000, 0.000000000000000000, 0.000000000000000000 ) ) ;
#250 = ORIENTED_EDGE ( 'NONE', *, *, #805, .F. ) ;
#251 = ADVANCED_FACE ( 'NONE', ( #784 ), #788, .F. ) ;
#252 = CIRCLE ( 'NONE', #448, 7.500000000000000000 ) ;
#253 = ORIENTED_EDGE ( 'NONE', *, *, #647, .T. ) ;
#254 = AXIS2_PLACEMENT_3D ( 'NONE', #764, #745, #77 ) ;
#255 = FACE_OUTER_BOUND ( 'NONE', #507, .T. ) ;
#256 = ORIENTED_EDGE ( 'NONE', *, *, #10, .T. ) ;
#257 = CARTESIAN_POINT ( 'NONE',  ( 7.500000000000062172, 0.000000000000000000, -19.50000000000036948 ) ) ;
#258 = ADVANCED_FACE ( 'NONE', ( #124 ), #191, .F. ) ;
#259 = ADVANCED_FACE ( 'NONE', ( #719 ), #42, .F. ) ;
#260 = EDGE_CURVE ( 'NONE', #445, #736, #269, .T. ) ;
#261 = CARTESIAN_POINT ( 'NONE',  ( 1.898979485566375525, 11.89897948556634510, -1.525308505311834040 ) ) ;
#262 = CARTESIAN_POINT ( 'NONE',  ( 7.500000000000074607, 15.00000000000000000, 0.000000000000000000 ) ) ;
#263 = DIRECTION ( 'NONE',  ( 0.000000000000000000, 0.000000000000000000, -1.000000000000000000 ) ) ;
#264 = CIRCLE ( 'NONE', #707, 7.500000000000000000 ) ;
#265 = DIRECTION ( 'NONE',  ( 0.000000000000000000, -0.000000000000000000, 1.000000000000000000 ) ) ;
#266 = AXIS2_PLACEMENT_3D ( 'NONE', #897, #61, #356 ) ;
#267 = VECTOR ( 'NONE', #375, 1000.000000000000000 ) ;
#268 = PLANE ( 'NONE',  #682 ) ;
#269 = LINE ( 'NONE', #469, #164 ) ;
#270 = CARTESIAN_POINT ( 'NONE',  ( 122.5000000000000426, 15.00000000000000000, -19.50000000000002487 ) ) ;
#271 = CARTESIAN_POINT ( 'NONE',  ( 122.5000000000000284, 7.500000000000000000, -19.50000000000002487 ) ) ;
#272 = LINE ( 'NONE', #933, #122 ) ;
#273 = ORIENTED_EDGE ( 'NONE', *, *, #279, .F. ) ;
#274 = DIRECTION ( 'NONE',  ( 0.000000000000000000, 0.000000000000000000, 1.000000000000000000 ) ) ;
#275 = FACE_OUTER_BOUND ( 'NONE', #600, .T. ) ;
#276 = EDGE_LOOP ( 'NONE', ( #179, #491, #807 ) ) ;
#277 = DIRECTION ( 'NONE',  ( 0.000000000000000000, 0.000000000000000000, -1.000000000000000000 ) ) ;
#278 = ORIENTED_EDGE ( 'NONE', *, *, #371, .T. ) ;
#279 = EDGE_CURVE ( 'NONE', #312, #59, #766, .T. ) ;
#280 = AXIS2_PLACEMENT_3D ( 'NONE', #183, #861, #857 ) ;
#281 = DIRECTION ( 'NONE',  ( -0.000000000000000000, 1.000000000000000000, -0.000000000000000000 ) ) ;
#282 = VECTOR ( 'NONE', #905, 1000.000000000000000 ) ;
#283 = DIRECTION ( 'NONE',  ( 1.000000000000000000, 0.000000000000000000, -0.000000000000000000 ) ) ;
#284 = ORIENTED_EDGE ( 'NONE', *, *, #392, .T. ) ;
#285 = PRODUCT_DEFINITION_FORMATION_WITH_SPECIFIED_SOURCE ( 'ANY', '', #503, .NOT_KNOWN. ) ;
#286 = CARTESIAN_POINT ( 'NONE',  ( 122.4999999999999858, 7.500000000000000000, -27.00000000000002487 ) ) ;
#287 = ORIENTED_EDGE ( 'NONE', *, *, #552, .F. ) ;
#288 = LINE ( 'NONE', #495, #346 ) ;
#289 = LINE ( 'NONE', #890, #166 ) ;
#290 = EDGE_LOOP ( 'NONE', ( #381, #26, #581, #207, #849 ) ) ;
#291 = CARTESIAN_POINT ( 'NONE',  ( 5.000000000000102141, 15.00000000000000000, -24.20000000000002771 ) ) ;
#292 = VERTEX_POINT ( 'NONE', #174 ) ;
#293 = DIRECTION ( 'NONE',  ( -0.000000000000000000, -1.000000000000000000, -0.000000000000000000 ) ) ;
#294 = EDGE_CURVE ( 'NONE', #130, #660, #323, .T. ) ;
#295 =( LENGTH_UNIT ( ) NAMED_UNIT ( * ) SI_UNIT ( .MILLI., .METRE. ) );
#296 = ORIENTED_EDGE ( 'NONE', *, *, #734, .F. ) ;
#297 = CARTESIAN_POINT ( 'NONE',  ( 7.500000000000074607, 15.00000000000000000, 0.000000000000000000 ) ) ;
#298 = FACE_OUTER_BOUND ( 'NONE', #558, .T. ) ;
#299 = VERTEX_POINT ( 'NONE', #696 ) ;
#300 = AXIS2_PLACEMENT_3D ( 'NONE', #195, #713, #566 ) ;
#301 = DIRECTION ( 'NONE',  ( 0.000000000000000000, 0.000000000000000000, -1.000000000000000000 ) ) ;
#302 = VERTEX_POINT ( 'NONE', #924 ) ;
#303 = CIRCLE ( 'NONE', #863, 7.500000000000000000 ) ;
#304 = LINE ( 'NONE', #659, #305 ) ;
#305 = VECTOR ( 'NONE', #671, 1000.000000000000000 ) ;
#306 = AXIS2_PLACEMENT_3D ( 'NONE', #29, #103, #408 ) ;
#307 = ORIENTED_EDGE ( 'NONE', *, *, #858, .T. ) ;
#308 =( NAMED_UNIT ( * ) PLANE_ANGLE_UNIT ( ) SI_UNIT ( $, .RADIAN. ) );
#309 = ORIENTED_EDGE ( 'NONE', *, *, #128, .T. ) ;
#310 = CARTESIAN_POINT ( 'NONE',  ( 95.00000000000011369, 20.80000000000000426, -22.00000000000000000 ) ) ;
#311 = CARTESIAN_POINT ( 'NONE',  ( 122.5000000000000426, 15.00000000000000000, -19.50000000000002487 ) ) ;
#312 = VERTEX_POINT ( 'NONE', #162 ) ;
#313 = CARTESIAN_POINT ( 'NONE',  ( 107.0000000000001137, 20.80000000000000426, -19.00000000000000000 ) ) ;
#314 = DIRECTION ( 'NONE',  ( 0.000000000000000000, 0.000000000000000000, -1.000000000000000000 ) ) ;
#315 = EDGE_CURVE ( 'NONE', #686, #302, #37, .T. ) ;
#316 = ORIENTED_EDGE ( 'NONE', *, *, #620, .T. ) ;
#317 = LINE ( 'NONE', #916, #21 ) ;
#318 = CARTESIAN_POINT ( 'NONE',  ( 5.000000000000058620, 4.999999999999999112, -2.799999999999999822 ) ) ;
#319 = LINE ( 'NONE', #848, #821 ) ;
#320 = CIRCLE ( 'NONE', #142, 2.999999999999999112 ) ;
#321 = AXIS2_PLACEMENT_3D ( 'NONE', #123, #46, #203 ) ;
#322 = VERTEX_POINT ( 'NONE', #98 ) ;
#323 = LINE ( 'NONE', #770, #742 ) ;
#324 = CARTESIAN_POINT ( 'NONE',  ( 122.5000000000000284, 0.000000000000000000, -19.49999999999996803 ) ) ;
#325 = EDGE_LOOP ( 'NONE', ( #92, #49, #893, #853 ) ) ;
#326 = EDGE_CURVE ( 'NONE', #55, #678, #420, .T. ) ;
#327 = EDGE_CURVE ( 'NONE', #796, #540, #416, .T. ) ;
#328 = ADVANCED_FACE ( 'NONE', ( #248 ), #615, .T. ) ;
#329 = SURFACE_SIDE_STYLE ('',( #778 ) ) ;
#330 = VERTEX_POINT ( 'NONE', #241 ) ;
#331 = APPLICATION_PROTOCOL_DEFINITION ( 'draft international standard', 'automotive_design', 1998, #833 ) ;
#332 = LINE ( 'NONE', #841, #680 ) ;
#333 = VECTOR ( 'NONE', #293, 1000.000000000000000 ) ;
#334 = ORIENTED_EDGE ( 'NONE', *, *, #874, .F. ) ;
#335 = AXIS2_PLACEMENT_3D ( 'NONE', #380, #907, #389 ) ;
#336 = PLANE ( 'NONE',  #31 ) ;
#337 = EDGE_CURVE ( 'NONE', #537, #781, #171, .T. ) ;
#338 = ADVANCED_FACE ( 'NONE', ( #475 ), #850, .F. ) ;
#339 = DIRECTION ( 'NONE',  ( -0.000000000000000000, -0.000000000000000000, -1.000000000000000000 ) ) ;
#340 = CARTESIAN_POINT ( 'NONE',  ( 95.00000000000011369, 18.80000000000000071, -13.99999999999999822 ) ) ;
#341 = CARTESIAN_POINT ( 'NONE',  ( 122.4999999999999432, 15.00000000000000000, -7.499999999999999112 ) ) ;
#342 =( BOUNDED_CURVE ( )  B_SPLINE_CURVE ( 3, ( #291, #158, #740, #971 ),
 .UNSPECIFIED., .F., .F. ) 
 B_SPLINE_CURVE_WITH_KNOTS ( ( 4, 4 ),
 ( 1.570796326794879683, 4.712388980384706549 ),
 .UNSPECIFIED. ) 
 CURVE ( )  GEOMETRIC_REPRESENTATION_ITEM ( )  RATIONAL_B_SPLINE_CURVE ( ( 1.000000000000000000, 0.3333333333333221016, 0.3333333333333221016, 1.000000000000000000 ) ) 
 REPRESENTATION_ITEM ( '' )  );
#343 = CARTESIAN_POINT ( 'NONE',  ( 107.0000000000001137, 18.80000000000000071, -22.00000000000000000 ) ) ;
#344 = LINE ( 'NONE', #884, #638 ) ;
#345 = CARTESIAN_POINT ( 'NONE',  ( 95.00000000000011369, 18.80000000000000071, -20.00000000000000000 ) ) ;
#346 = VECTOR ( 'NONE', #117, 1000.000000000000000 ) ;
#347 = DIRECTION ( 'NONE',  ( -0.000000000000000000, 1.000000000000000000, -0.000000000000000000 ) ) ;
#348 = AXIS2_PLACEMENT_3D ( 'NONE', #271, #871, #811 ) ;
#349 = CARTESIAN_POINT ( 'NONE',  ( 5.000000000000051514, 15.00000000000000000, -7.200000000000000178 ) ) ;
#350 = CARTESIAN_POINT ( 'NONE',  ( 7.500000000000055955, 7.500000000000000000, -19.50000000000002487 ) ) ;
#351 = ORIENTED_EDGE ( 'NONE', *, *, #373, .F. ) ;
#352 = DIRECTION ( 'NONE',  ( -1.000000000000000000, -0.000000000000000000, 0.000000000000000000 ) ) ;
#353 = FACE_OUTER_BOUND ( 'NONE', #467, .T. ) ;
#354 = DIRECTION ( 'NONE',  ( 0.000000000000000000, 0.000000000000000000, -1.000000000000000000 ) ) ;
#355 = EDGE_CURVE ( 'NONE', #513, #330, #24, .T. ) ;
#356 = DIRECTION ( 'NONE',  ( 0.000000000000000000, 0.000000000000000000, 1.000000000000000000 ) ) ;
#357 = ORIENTED_EDGE ( 'NONE', *, *, #888, .F. ) ;
#358 = CARTESIAN_POINT ( 'NONE',  ( 5.000000000000058620, 4.999999999999999112, -22.00000000000002132 ) ) ;
#359 = SPHERICAL_SURFACE ( 'NONE', #321, 7.500000000000000000 ) ;
#360 = ORIENTED_EDGE ( 'NONE', *, *, #805, .T. ) ;
#361 = LINE ( 'NONE', #54, #125 ) ;
#362 = ORIENTED_EDGE ( 'NONE', *, *, #373, .T. ) ;
#363 = DIRECTION ( 'NONE',  ( 0.000000000000000000, 1.000000000000000000, 0.000000000000000000 ) ) ;
#364 = AXIS2_PLACEMENT_3D ( 'NONE', #934, #94, #90 ) ;
#365 = VECTOR ( 'NONE', #675, 1000.000000000000000 ) ;
#366 = LINE ( 'NONE', #546, #959 ) ;
#367 = ORIENTED_EDGE ( 'NONE', *, *, #44, .F. ) ;
#368 = DIRECTION ( 'NONE',  ( -0.000000000000000000, -1.000000000000000000, -0.000000000000000000 ) ) ;
#369 = EDGE_CURVE ( 'NONE', #176, #684, #320, .T. ) ;
#370 = ORIENTED_EDGE ( 'NONE', *, *, #326, .T. ) ;
#371 = EDGE_CURVE ( 'NONE', #312, #292, #252, .T. ) ;
#372 = EDGE_CURVE ( 'NONE', #921, #322, #919, .T. ) ;
#373 = EDGE_CURVE ( 'NONE', #562, #126, #541, .T. ) ;
#374 = CYLINDRICAL_SURFACE ( 'NONE', #145, 7.499999999999996447 ) ;
#375 = DIRECTION ( 'NONE',  ( -1.000000000000000000, 0.000000000000000000, 0.000000000000000000 ) ) ;
#376 = VERTEX_POINT ( 'NONE', #310 ) ;
#377 = CARTESIAN_POINT ( 'NONE',  ( 5.000000000000058620, 4.999999999999999112, -5.000000000000000000 ) ) ;
#378 = CARTESIAN_POINT ( 'NONE',  ( 122.4999999999999432, 15.00000000000000000, -7.499999999999999112 ) ) ;
#379 = ORIENTED_EDGE ( 'NONE', *, *, #152, .T. ) ;
#380 = CARTESIAN_POINT ( 'NONE',  ( 130.0000000000000284, 15.00000000000000000, -19.49999999999991829 ) ) ;
#381 = ORIENTED_EDGE ( 'NONE', *, *, #96, .F. ) ;
#382 = DIRECTION ( 'NONE',  ( -1.000000000000000000, -0.000000000000000000, -5.551115123125782702E-15 ) ) ;
#383 = CLOSED_SHELL ( 'NONE', ( #444, #251, #786, #931, #170, #328, #820, #501, #116, #589, #411, #748, #577, #488, #823, #621, #749, #852, #181, #958, #188, #548, #338, #945, #465, #502, #259, #209, #431, #787, #843, #258, #574, #550 ) ) ;
#384 = CARTESIAN_POINT ( 'NONE',  ( 107.0000000000001137, 16.89999999999999858, -20.00000000000000000 ) ) ;
#385 = EDGE_LOOP ( 'NONE', ( #670, #474, #247, #66 ) ) ;
#386 = AXIS2_PLACEMENT_3D ( 'NONE', #797, #936, #265 ) ;
#387 = DIRECTION ( 'NONE',  ( 0.000000000000000000, 0.000000000000000000, 1.000000000000000000 ) ) ;
#388 = CIRCLE ( 'NONE', #510, 7.499999999999999112 ) ;
#389 = DIRECTION ( 'NONE',  ( -6.938893903907275709E-15, 0.000000000000000000, 1.000000000000000000 ) ) ;
#390 = ORIENTED_EDGE ( 'NONE', *, *, #96, .T. ) ;
#391 = DIRECTION ( 'NONE',  ( -2.988138189919538562E-15, 0.000000000000000000, 1.000000000000000000 ) ) ;
#392 = EDGE_CURVE ( 'NONE', #302, #397, #630, .T. ) ;
#393 = ORIENTED_EDGE ( 'NONE', *, *, #337, .T. ) ;
#394 = CARTESIAN_POINT ( 'NONE',  ( 122.4999999999999005, 15.00000000000000000, 4.336808689942017736E-15 ) ) ;
#395 = CARTESIAN_POINT ( 'NONE',  ( 5.826869470343097592E-14, 7.500000000000000000, -19.49999999999999289 ) ) ;
#396 = DIRECTION ( 'NONE',  ( 1.000000000000000000, -0.000000000000000000, -0.000000000000000000 ) ) ;
#397 = VERTEX_POINT ( 'NONE', #553 ) ;
#398 = DIRECTION ( 'NONE',  ( 1.000000000000000000, 0.000000000000000000, 0.000000000000000000 ) ) ;
#399 = CARTESIAN_POINT ( 'NONE',  ( 7.500000000000074607, 7.500000000000000000, -7.500000000000000000 ) ) ;
#400 = AXIS2_PLACEMENT_3D ( 'NONE', #343, #947, #274 ) ;
#401 = AXIS2_PLACEMENT_3D ( 'NONE', #378, #214, #528 ) ;
#402 = PRODUCT_DEFINITION ( 'UNKNOWN', '', #285, #35 ) ;
#403 = EDGE_CURVE ( 'NONE', #562, #532, #847, .T. ) ;
#404 = ORIENTED_EDGE ( 'NONE', *, *, #355, .F. ) ;
#405 = CARTESIAN_POINT ( 'NONE',  ( 0.000000000000000000, 20.80000000000000426, -22.00000000000000000 ) ) ;
#406 = UNCERTAINTY_MEASURE_WITH_UNIT (LENGTH_MEASURE( 1.000000000000000082E-05 ), #767, 'distance_accuracy_value', 'NONE');
#407 = ORIENTED_EDGE ( 'NONE', *, *, #369, .T. ) ;
#408 = DIRECTION ( 'NONE',  ( 1.000000000000000000, 0.000000000000000000, 0.000000000000000000 ) ) ;
#409 = CARTESIAN_POINT ( 'NONE',  ( 95.00000000000011369, 18.80000000000000071, -17.00000000000000000 ) ) ;
#410 = EDGE_LOOP ( 'NONE', ( #928, #452, #120, #91 ) ) ;
#411 = ADVANCED_FACE ( 'NONE', ( #111 ), #840, .T. ) ;
#412 = EDGE_CURVE ( 'NONE', #141, #322, #202, .T. ) ;
#413 = VECTOR ( 'NONE', #774, 1000.000000000000000 ) ;
#414 = CARTESIAN_POINT ( 'NONE',  ( 7.500000000000074607, 15.00000000000000000, 0.000000000000000000 ) ) ;
#415 = UNCERTAINTY_MEASURE_WITH_UNIT (LENGTH_MEASURE( 1.000000000000000082E-05 ), #295, 'distance_accuracy_value', 'NONE');
#416 = CIRCLE ( 'NONE', #364, 2.200000000000000622 ) ;
#417 = CIRCLE ( 'NONE', #917, 7.500000000000000000 ) ;
#418 = CARTESIAN_POINT ( 'NONE',  ( 5.000000000000058620, 4.999999999999999112, -24.20000000000002416 ) ) ;
#419 = DIRECTION ( 'NONE',  ( 0.000000000000000000, 0.000000000000000000, -1.000000000000000000 ) ) ;
#420 =( BOUNDED_CURVE ( )  B_SPLINE_CURVE ( 3, ( #845, #261, #699, #626 ),
 .UNSPECIFIED., .F., .F. ) 
 B_SPLINE_CURVE_WITH_KNOTS ( ( 4, 4 ),
 ( 5.052225889838807049, 6.283185307179586232 ),
 .UNSPECIFIED. ) 
 CURVE ( )  GEOMETRIC_REPRESENTATION_ITEM ( )  RATIONAL_B_SPLINE_CURVE ( ( 1.000000000000000000, 0.8776643872851497274, 0.8776643872851497274, 1.000000000000000000 ) ) 
 REPRESENTATION_ITEM ( '' )  );
#421 = CARTESIAN_POINT ( 'NONE',  ( 5.000000000000058620, 4.999999999999999112, -7.200000000000000178 ) ) ;
#422 = CARTESIAN_POINT ( 'NONE',  ( 95.00000000000011369, 18.80000000000000071, -22.00000000000000000 ) ) ;
#423 = CARTESIAN_POINT ( 'NONE',  ( 1.898979485566443914, 11.89897948556634333, -25.47469149468821925 ) ) ;
#424 = PLANE ( 'NONE',  #484 ) ;
#425 = DIRECTION ( 'NONE',  ( -1.000000000000000000, -0.000000000000000000, -0.000000000000000000 ) ) ;
#426 = DIRECTION ( 'NONE',  ( 0.000000000000000000, 1.000000000000000000, 0.000000000000000000 ) ) ;
#427 = ORIENTED_EDGE ( 'NONE', *, *, #763, .F. ) ;
#428 = AXIS2_PLACEMENT_3D ( 'NONE', #649, #939, #354 ) ;
#429 = LINE ( 'NONE', #726, #760 ) ;
#430 = VECTOR ( 'NONE', #610, 1000.000000000000000 ) ;
#431 = ADVANCED_FACE ( 'NONE', ( #870 ), #440, .F. ) ;
#432 = DIRECTION ( 'NONE',  ( 0.000000000000000000, 0.000000000000000000, -1.000000000000000000 ) ) ;
#433 = CARTESIAN_POINT ( 'NONE',  ( 95.00000000000011369, 23.80000000000000071, -13.99999999999999822 ) ) ;
#434 = ORIENTED_EDGE ( 'NONE', *, *, #763, .T. ) ;
#435 = CARTESIAN_POINT ( 'NONE',  ( 5.000000000000058620, 4.999999999999999112, -22.00000000000002132 ) ) ;
#436 = CARTESIAN_POINT ( 'NONE',  ( 95.00000000000011369, 15.00000000000000000, -20.00000000000000000 ) ) ;
#437 = ORIENTED_EDGE ( 'NONE', *, *, #911, .T. ) ;
#438 = PLANE ( 'NONE',  #854 ) ;
#439 = ORIENTED_EDGE ( 'NONE', *, *, #479, .F. ) ;
#440 = PLANE ( 'NONE',  #400 ) ;
#441 = EDGE_CURVE ( 'NONE', #951, #955, #937, .T. ) ;
#442 = DIRECTION ( 'NONE',  ( -1.000000000000000000, 0.000000000000000000, -0.000000000000000000 ) ) ;
#443 = ORIENTED_EDGE ( 'NONE', *, *, #689, .T. ) ;
#444 = ADVANCED_FACE ( 'NONE', ( #793 ), #578, .F. ) ;
#445 = VERTEX_POINT ( 'NONE', #596 ) ;
#446 = VECTOR ( 'NONE', #705, 1000.000000000000000 ) ;
#447 = FACE_OUTER_BOUND ( 'NONE', #81, .T. ) ;
#448 = AXIS2_PLACEMENT_3D ( 'NONE', #618, #85, #642 ) ;
#449 = VECTOR ( 'NONE', #16, 1000.000000000000000 ) ;
#450 = VECTOR ( 'NONE', #903, 1000.000000000000000 ) ;
#451 = CARTESIAN_POINT ( 'NONE',  ( 107.0000000000001137, 16.89999999999999858, -20.00000000000000000 ) ) ;
#452 = ORIENTED_EDGE ( 'NONE', *, *, #526, .T. ) ;
#453 = CIRCLE ( 'NONE', #627, 7.499999999999999112 ) ;
#454 = LINE ( 'NONE', #729, #572 ) ;
#455 = CARTESIAN_POINT ( 'NONE',  ( 7.500000000000074607, 7.500000000000000000, 0.000000000000000000 ) ) ;
#456 = VERTEX_POINT ( 'NONE', #421 ) ;
#457 = LINE ( 'NONE', #608, #450 ) ;
#458 = ORIENTED_EDGE ( 'NONE', *, *, #492, .F. ) ;
#459 = DIRECTION ( 'NONE',  ( 1.000000000000000000, 0.000000000000000000, 0.000000000000000000 ) ) ;
#460 = DIRECTION ( 'NONE',  ( 0.000000000000000000, -0.5350520811843453295, -0.8448190755542281938 ) ) ;
#461 = VERTEX_POINT ( 'NONE', #737 ) ;
#462 = ORIENTED_EDGE ( 'NONE', *, *, #10, .F. ) ;
#463 = DIRECTION ( 'NONE',  ( -2.988138189919538562E-15, -0.000000000000000000, 1.000000000000000000 ) ) ;
#464 = VERTEX_POINT ( 'NONE', #196 ) ;
#465 = ADVANCED_FACE ( 'NONE', ( #187 ), #208, .F. ) ;
#466 = LINE ( 'NONE', #140, #866 ) ;
#467 = EDGE_LOOP ( 'NONE', ( #476, #370, #695, #182, #216 ) ) ;
#468 = AXIS2_PLACEMENT_3D ( 'NONE', #744, #71, #460 ) ;
#469 = CARTESIAN_POINT ( 'NONE',  ( 107.0000000000001137, 18.80000000000000071, -22.00000000000000000 ) ) ;
#470 = VECTOR ( 'NONE', #864, 1000.000000000000000 ) ;
#471 =( NAMED_UNIT ( * ) SI_UNIT ( $, .STERADIAN. ) SOLID_ANGLE_UNIT ( ) );
#472 =( GEOMETRIC_REPRESENTATION_CONTEXT ( 3 ) GLOBAL_UNCERTAINTY_ASSIGNED_CONTEXT ( ( #415 ) ) GLOBAL_UNIT_ASSIGNED_CONTEXT ( ( #295, #308, #687 ) ) REPRESENTATION_CONTEXT ( 'NONE', 'WORKASPACE' ) );
#473 = ORIENTED_EDGE ( 'NONE', *, *, #93, .T. ) ;
#474 = ORIENTED_EDGE ( 'NONE', *, *, #967, .T. ) ;
#475 = FACE_OUTER_BOUND ( 'NONE', #105, .T. ) ;
#476 = ORIENTED_EDGE ( 'NONE', *, *, #942, .F. ) ;
#477 = CARTESIAN_POINT ( 'NONE',  ( 5.000000000000058620, 4.999999999999999112, -5.000000000000000000 ) ) ;
#478 = DIRECTION ( 'NONE',  ( 0.000000000000000000, 0.000000000000000000, 1.000000000000000000 ) ) ;
#479 = EDGE_CURVE ( 'NONE', #223, #141, #288, .T. ) ;
#480 = EDGE_LOOP ( 'NONE', ( #633, #741, #316, #437 ) ) ;
#481 = CIRCLE ( 'NONE', #300, 2.200000000000000178 ) ;
#482 = DIRECTION ( 'NONE',  ( 1.000000000000000000, 0.000000000000000000, 0.000000000000000000 ) ) ;
#483 = CARTESIAN_POINT ( 'NONE',  ( 5.000000000000108358, 15.00000000000000000, -26.57106781186551459 ) ) ;
#484 = AXIS2_PLACEMENT_3D ( 'NONE', #127, #790, #51 ) ;
#485 = VECTOR ( 'NONE', #720, 1000.000000000000000 ) ;
#486 = ORIENTED_EDGE ( 'NONE', *, *, #692, .F. ) ;
#487 = LINE ( 'NONE', #25, #413 ) ;
#488 = ADVANCED_FACE ( 'NONE', ( #63 ), #424, .F. ) ;
#489 = EDGE_LOOP ( 'NONE', ( #565, #253, #520 ) ) ;
#490 = DIRECTION ( 'NONE',  ( 2.988138189919538562E-15, 0.000000000000000000, -1.000000000000000000 ) ) ;
#491 = ORIENTED_EDGE ( 'NONE', *, *, #587, .T. ) ;
#492 = EDGE_CURVE ( 'NONE', #584, #530, #582, .T. ) ;
#493 = FACE_OUTER_BOUND ( 'NONE', #885, .T. ) ;
#494 = CIRCLE ( 'NONE', #826, 2.200000000000000178 ) ;
#495 = CARTESIAN_POINT ( 'NONE',  ( 122.5000000000000426, 0.000000000000000000, -7.500000000000000000 ) ) ;
#496 = CYLINDRICAL_SURFACE ( 'NONE', #189, 7.499999999999999112 ) ;
#497 = DIRECTION ( 'NONE',  ( -1.000000000000000000, 0.000000000000000000, -0.000000000000000000 ) ) ;
#498 = DIRECTION ( 'NONE',  ( -0.000000000000000000, 1.000000000000000000, -0.000000000000000000 ) ) ;
#499 = DIRECTION ( 'NONE',  ( 1.000000000000000000, 0.000000000000000000, 0.000000000000000000 ) ) ;
#500 = CYLINDRICAL_SURFACE ( 'NONE', #842, 7.500000000000004441 ) ;
#501 = ADVANCED_FACE ( 'NONE', ( #716 ), #40, .T. ) ;
#502 = ADVANCED_FACE ( 'NONE', ( #646 ), #652, .T. ) ;
#503 = PRODUCT ( 'Lid', 'Lid', '', ( #634 ) ) ;
#504 = DIRECTION ( 'NONE',  ( 0.000000000000000000, 0.000000000000000000, 1.000000000000000000 ) ) ;
#505 = CARTESIAN_POINT ( 'NONE',  ( 5.000000000000037303, 15.00000000000000000, -2.799999999999999822 ) ) ;
#506 = DIRECTION ( 'NONE',  ( 0.000000000000000000, 0.000000000000000000, 1.000000000000000000 ) ) ;
#507 = EDGE_LOOP ( 'NONE', ( #751, #439, #812, #458 ) ) ;
#508 = CIRCLE ( 'NONE', #110, 2.200000000000000178 ) ;
#509 = CARTESIAN_POINT ( 'NONE',  ( 122.5000000000000426, 7.500000000000000000, -19.50000000000002487 ) ) ;
#510 = AXIS2_PLACEMENT_3D ( 'NONE', #954, #868, #41 ) ;
#511 = EDGE_LOOP ( 'NONE', ( #703, #837, #230, #213 ) ) ;
#512 = DIRECTION ( 'NONE',  ( -1.000000000000000000, -0.000000000000000000, -0.000000000000000000 ) ) ;
#513 = VERTEX_POINT ( 'NONE', #573 ) ;
#514 = EDGE_CURVE ( 'NONE', #781, #330, #508, .T. ) ;
#515 = DIRECTION ( 'NONE',  ( 0.000000000000000000, 0.000000000000000000, 1.000000000000000000 ) ) ;
#516 = EDGE_CURVE ( 'NONE', #796, #660, #200, .T. ) ;
#517 = DIRECTION ( 'NONE',  ( 0.000000000000000000, -0.000000000000000000, 1.000000000000000000 ) ) ;
#518 = ORIENTED_EDGE ( 'NONE', *, *, #337, .F. ) ;
#519 = LINE ( 'NONE', #813, #430 ) ;
#520 = ORIENTED_EDGE ( 'NONE', *, *, #23, .F. ) ;
#521 = FACE_OUTER_BOUND ( 'NONE', #385, .T. ) ;
#522 = DIRECTION ( 'NONE',  ( 0.000000000000000000, 0.000000000000000000, -1.000000000000000000 ) ) ;
#523 = ORIENTED_EDGE ( 'NONE', *, *, #883, .F. ) ;
#524 = LINE ( 'NONE', #297, #282 ) ;
#525 = VERTEX_POINT ( 'NONE', #121 ) ;
#526 = EDGE_CURVE ( 'NONE', #672, #292, #429, .T. ) ;
#527 = CIRCLE ( 'NONE', #898, 7.500000000000004441 ) ;
#528 = DIRECTION ( 'NONE',  ( 0.000000000000000000, 0.000000000000000000, -1.000000000000000000 ) ) ;
#529 = AXIS2_PLACEMENT_3D ( 'NONE', #270, #363, #810 ) ;
#530 = VERTEX_POINT ( 'NONE', #952 ) ;
#531 = FACE_OUTER_BOUND ( 'NONE', #946, .T. ) ;
#532 = VERTEX_POINT ( 'NONE', #590 ) ;
#533 = AXIS2_PLACEMENT_3D ( 'NONE', #311, #215, #836 ) ;
#534 = CARTESIAN_POINT ( 'NONE',  ( 130.0000000000000284, 7.500000000000000000, -19.49999999999991829 ) ) ;
#535 = LINE ( 'NONE', #227, #165 ) ;
#536 = DIRECTION ( 'NONE',  ( -0.000000000000000000, -1.000000000000000000, -0.000000000000000000 ) ) ;
#537 = VERTEX_POINT ( 'NONE', #882 ) ;
#538 = DIRECTION ( 'NONE',  ( -5.551115123125782702E-15, 0.000000000000000000, 1.000000000000000000 ) ) ;
#539 = EDGE_CURVE ( 'NONE', #955, #672, #80, .T. ) ;
#540 = VERTEX_POINT ( 'NONE', #219 ) ;
#541 = LINE ( 'NONE', #711, #899 ) ;
#542 = DIRECTION ( 'NONE',  ( 2.220446049250314027E-14, 0.000000000000000000, -1.000000000000000000 ) ) ;
#543 = CIRCLE ( 'NONE', #30, 7.500000000000000000 ) ;
#544 = ORIENTED_EDGE ( 'NONE', *, *, #19, .T. ) ;
#545 = CIRCLE ( 'NONE', #776, 7.500000000000000000 ) ;
#546 = CARTESIAN_POINT ( 'NONE',  ( 107.0000000000001137, 18.80000000000000071, -22.00000000000000000 ) ) ;
#547 = ORIENTED_EDGE ( 'NONE', *, *, #704, .T. ) ;
#548 = ADVANCED_FACE ( 'NONE', ( #298 ), #889, .T. ) ;
#549 = ORIENTED_EDGE ( 'NONE', *, *, #552, .T. ) ;
#550 = ADVANCED_FACE ( 'NONE', ( #755 ), #901, .T. ) ;
#551 = EDGE_LOOP ( 'NONE', ( #772, #362, #76, #586, #609, #665, #824, #434 ) ) ;
#552 = EDGE_CURVE ( 'NONE', #730, #595, #33, .T. ) ;
#553 = CARTESIAN_POINT ( 'NONE',  ( 95.00000000000011369, 15.00000000000000000, -22.00000000000000000 ) ) ;
#554 = CARTESIAN_POINT ( 'NONE',  ( 7.500000000000055955, 15.00000000000000000, -19.50000000000002487 ) ) ;
#555 = ORIENTED_EDGE ( 'NONE', *, *, #693, .F. ) ;
#556 = CARTESIAN_POINT ( 'NONE',  ( 95.00000000000011369, 18.80000000000000071, -20.00000000000000000 ) ) ;
#557 = CARTESIAN_POINT ( 'NONE',  ( 122.5000000000000426, 7.500000000000000000, -19.50000000000002487 ) ) ;
#558 = EDGE_LOOP ( 'NONE', ( #486, #860, #233, #523, #157, #768, #624, #404 ) ) ;
#559 = DIRECTION ( 'NONE',  ( 0.000000000000000000, 1.000000000000000000, -0.000000000000000000 ) ) ;
#560 = VECTOR ( 'NONE', #567, 1000.000000000000000 ) ;
#561 = CIRCLE ( 'NONE', #940, 2.999999999999999112 ) ;
#562 = VERTEX_POINT ( 'NONE', #816 ) ;
#563 = DIRECTION ( 'NONE',  ( -0.000000000000000000, -1.000000000000000000, -0.000000000000000000 ) ) ;
#564 = EDGE_CURVE ( 'NONE', #461, #525, #535, .T. ) ;
#565 = ORIENTED_EDGE ( 'NONE', *, *, #677, .F. ) ;
#566 = DIRECTION ( 'NONE',  ( 0.000000000000000000, 0.000000000000000000, 1.000000000000000000 ) ) ;
#567 = DIRECTION ( 'NONE',  ( -0.000000000000000000, -1.000000000000000000, -0.000000000000000000 ) ) ;
#568 = CARTESIAN_POINT ( 'NONE',  ( 0.6000000000001065592, 10.60000000000006359, -7.199999999999985079 ) ) ;
#569 = DIRECTION ( 'NONE',  ( -1.000000000000000000, 0.000000000000000000, -2.775557561562891351E-15 ) ) ;
#570 = VECTOR ( 'NONE', #490, 1000.000000000000000 ) ;
#571 = CIRCLE ( 'NONE', #143, 7.499999999999996447 ) ;
#572 = VECTOR ( 'NONE', #74, 1000.000000000000000 ) ;
#573 = CARTESIAN_POINT ( 'NONE',  ( 5.000000000000088818, 15.00000000000000000, -19.80000000000002203 ) ) ;
#574 = ADVANCED_FACE ( 'NONE', ( #521 ), #75, .T. ) ;
#575 = CARTESIAN_POINT ( 'NONE',  ( 107.0000000000001137, 18.80000000000000071, -17.00000000000000000 ) ) ;
#576 = CARTESIAN_POINT ( 'NONE',  ( 122.5000000000000426, 7.500000000000000000, -7.500000000000000000 ) ) ;
#577 = ADVANCED_FACE ( 'NONE', ( #447 ), #374, .T. ) ;
#578 = CYLINDRICAL_SURFACE ( 'NONE', #101, 2.200000000000000622 ) ;
#579 = DIRECTION ( 'NONE',  ( -0.000000000000000000, -1.000000000000000000, -0.000000000000000000 ) ) ;
#580 = CARTESIAN_POINT ( 'NONE',  ( 7.500000000000057732, 7.500000000000000000, -19.49999999999997158 ) ) ;
#581 = ORIENTED_EDGE ( 'NONE', *, *, #57, .F. ) ;
#582 = LINE ( 'NONE', #113, #45 ) ;
#583 = DIRECTION ( 'NONE',  ( -0.000000000000000000, -1.000000000000000000, -0.000000000000000000 ) ) ;
#584 = VERTEX_POINT ( 'NONE', #455 ) ;
#585 = CARTESIAN_POINT ( 'NONE',  ( 122.4999999999999858, 7.500000000000000000, -19.50000000000002487 ) ) ;
#586 = ORIENTED_EDGE ( 'NONE', *, *, #19, .F. ) ;
#587 = EDGE_CURVE ( 'NONE', #223, #299, #881, .T. ) ;
#588 = AXIS2_PLACEMENT_3D ( 'NONE', #433, #53, #497 ) ;
#589 = ADVANCED_FACE ( 'NONE', ( #599 ), #754, .T. ) ;
#590 = CARTESIAN_POINT ( 'NONE',  ( 95.00000000000011369, 15.00000000000000000, -20.00000000000000000 ) ) ;
#591 = VECTOR ( 'NONE', #757, 1000.000000000000000 ) ;
#592 = CYLINDRICAL_SURFACE ( 'NONE', #348, 7.500000000000007105 ) ;
#593 = EDGE_LOOP ( 'NONE', ( #830, #598, #12, #603, #617, #547, #549, #309, #107, #828, #629, #1 ) ) ;
#594 = DIRECTION ( 'NONE',  ( 1.000000000000000000, 0.000000000000000000, 1.434038073474159164E-14 ) ) ;
#595 = VERTEX_POINT ( 'NONE', #892 ) ;
#596 = CARTESIAN_POINT ( 'NONE',  ( 107.0000000000001137, 18.80000000000000071, -13.99999999999999822 ) ) ;
#597 = CARTESIAN_POINT ( 'NONE',  ( 2.168404344971008868E-14, 15.00000000000000000, -7.500000000000072831 ) ) ;
#598 = ORIENTED_EDGE ( 'NONE', *, *, #355, .T. ) ;
#599 = FACE_OUTER_BOUND ( 'NONE', #632, .T. ) ;
#600 = EDGE_LOOP ( 'NONE', ( #761, #473, #307, #284 ) ) ;
#601 = DIRECTION ( 'NONE',  ( 2.988138189919538562E-15, 0.000000000000000000, -1.000000000000000000 ) ) ;
#602 = FACE_OUTER_BOUND ( 'NONE', #593, .T. ) ;
#603 = ORIENTED_EDGE ( 'NONE', *, *, #611, .T. ) ;
#604 = DIRECTION ( 'NONE',  ( 1.000000000000000000, 0.000000000000000000, 6.938893903907222067E-15 ) ) ;
#605 = CARTESIAN_POINT ( 'NONE',  ( 5.000000000000087930, 15.00000000000000000, -19.50000000000037303 ) ) ;
#606 = AXIS2_PLACEMENT_3D ( 'NONE', #509, #875, #656 ) ;
#607 = ORIENTED_EDGE ( 'NONE', *, *, #60, .F. ) ;
#608 = CARTESIAN_POINT ( 'NONE',  ( 95.00000000000011369, 18.80000000000000071, -22.00000000000000000 ) ) ;
#609 = ORIENTED_EDGE ( 'NONE', *, *, #564, .F. ) ;
#610 = DIRECTION ( 'NONE',  ( -1.000000000000000000, 0.000000000000000000, 0.000000000000000000 ) ) ;
#611 = EDGE_CURVE ( 'NONE', #781, #55, #361, .T. ) ;
#612 = ORIENTED_EDGE ( 'NONE', *, *, #412, .T. ) ;
#613 = DIRECTION ( 'NONE',  ( 0.000000000000000000, 0.5350520811843453295, 0.8448190755542281938 ) ) ;
#614 = ORIENTED_EDGE ( 'NONE', *, *, #492, .T. ) ;
#615 = SPHERICAL_SURFACE ( 'NONE', #87, 7.500000000000000000 ) ;
#616 = LINE ( 'NONE', #597, #710 ) ;
#617 = ORIENTED_EDGE ( 'NONE', *, *, #942, .T. ) ;
#618 = CARTESIAN_POINT ( 'NONE',  ( 7.500000000000055955, 7.500000000000000000, -19.50000000000002487 ) ) ;
#619 = CARTESIAN_POINT ( 'NONE',  ( 130.0000000000000284, 15.00000000000000000, -19.49999999999991829 ) ) ;
#620 = EDGE_CURVE ( 'NONE', #540, #513, #304, .T. ) ;
#621 = ADVANCED_FACE ( 'NONE', ( #957 ), #438, .F. ) ;
#622 = STYLED_ITEM ( 'NONE', ( #172 ), #133 ) ;
#623 = VECTOR ( 'NONE', #773, 1000.000000000000000 ) ;
#624 = ORIENTED_EDGE ( 'NONE', *, *, #779, .F. ) ;
#625 = AXIS2_PLACEMENT_3D ( 'NONE', #747, #679, #594 ) ;
#626 = CARTESIAN_POINT ( 'NONE',  ( 2.168404344971008868E-14, 9.999999999999980460, -7.500000000000072831 ) ) ;
#627 = AXIS2_PLACEMENT_3D ( 'NONE', #913, #11, #522 ) ;
#628 = CARTESIAN_POINT ( 'NONE',  ( 107.0000000000001137, 23.80000000000000071, -13.99999999999999822 ) ) ;
#629 = ORIENTED_EDGE ( 'NONE', *, *, #57, .T. ) ;
#630 = LINE ( 'NONE', #17, #698 ) ;
#631 = CYLINDRICAL_SURFACE ( 'NONE', #64, 7.500000000000000000 ) ;
#632 = EDGE_LOOP ( 'NONE', ( #62, #902, #160 ) ) ;
#633 = ORIENTED_EDGE ( 'NONE', *, *, #516, .F. ) ;
#634 = PRODUCT_CONTEXT ( 'NONE', #833, 'mechanical' ) ;
#635 = PRESENTATION_LAYER_ASSIGNMENT (  '', '', ( #622 ) ) ;
#636 =( NAMED_UNIT ( * ) PLANE_ANGLE_UNIT ( ) SI_UNIT ( $, .RADIAN. ) );
#637 = VECTOR ( 'NONE', #347, 1000.000000000000000 ) ;
#638 = VECTOR ( 'NONE', #425, 1000.000000000000000 ) ;
#639 = EDGE_CURVE ( 'NONE', #461, #376, #561, .T. ) ;
#640 = ORIENTED_EDGE ( 'NONE', *, *, #153, .F. ) ;
#641 = CARTESIAN_POINT ( 'NONE',  ( 5.000000000000058620, 4.999999999999999112, -5.000000000000000000 ) ) ;
#642 = DIRECTION ( 'NONE',  ( 0.000000000000000000, 0.000000000000000000, -1.000000000000000000 ) ) ;
#643 = FACE_OUTER_BOUND ( 'NONE', #70, .T. ) ;
#644 = LINE ( 'NONE', #257, #570 ) ;
#645 = EDGE_CURVE ( 'NONE', #59, #223, #838, .T. ) ;
#646 = FACE_OUTER_BOUND ( 'NONE', #78, .T. ) ;
#647 = EDGE_CURVE ( 'NONE', #59, #672, #417, .T. ) ;
#648 = FACE_OUTER_BOUND ( 'NONE', #228, .T. ) ;
#649 = CARTESIAN_POINT ( 'NONE',  ( 95.00000000000011369, 18.80000000000000071, -22.00000000000000000 ) ) ;
#650 = AXIS2_PLACEMENT_3D ( 'NONE', #358, #498, #504 ) ;
#651 = VECTOR ( 'NONE', #38, 1000.000000000000000 ) ;
#652 = PLANE ( 'NONE',  #386 ) ;
#653 = CYLINDRICAL_SURFACE ( 'NONE', #205, 7.500000000000000000 ) ;
#654 = DIRECTION ( 'NONE',  ( -1.000000000000000000, 0.000000000000000000, -0.000000000000000000 ) ) ;
#655 = VERTEX_POINT ( 'NONE', #808 ) ;
#656 = DIRECTION ( 'NONE',  ( 0.000000000000000000, 0.000000000000000000, 1.000000000000000000 ) ) ;
#657 = DIRECTION ( 'NONE',  ( 0.000000000000000000, 0.000000000000000000, 1.000000000000000000 ) ) ;
#658 = ORIENTED_EDGE ( 'NONE', *, *, #260, .T. ) ;
#659 = CARTESIAN_POINT ( 'NONE',  ( 5.000000000000058620, 4.999999999999999112, -19.80000000000002203 ) ) ;
#660 = VERTEX_POINT ( 'NONE', #664 ) ;
#661 = DIRECTION ( 'NONE',  ( 1.000000000000000000, -0.000000000000000000, -0.000000000000000000 ) ) ;
#662 = DIRECTION ( 'NONE',  ( 0.000000000000000000, 0.000000000000000000, -1.000000000000000000 ) ) ;
#663 = ORIENTED_EDGE ( 'NONE', *, *, #715, .T. ) ;
#664 = CARTESIAN_POINT ( 'NONE',  ( 5.000000000000102141, 15.00000000000000000, -24.20000000000002771 ) ) ;
#665 = ORIENTED_EDGE ( 'NONE', *, *, #639, .T. ) ;
#666 = EDGE_CURVE ( 'NONE', #223, #530, #48, .T. ) ;
#667 = AXIS2_PLACEMENT_3D ( 'NONE', #477, #909, #13 ) ;
#668 = CARTESIAN_POINT ( 'NONE',  ( 7.500000000000062172, 7.500000000000000000, -19.50000000000036948 ) ) ;
#669 = PLANE ( 'NONE',  #254 ) ;
#670 = ORIENTED_EDGE ( 'NONE', *, *, #961, .T. ) ;
#671 = DIRECTION ( 'NONE',  ( -0.000000000000000000, 1.000000000000000000, -0.000000000000000000 ) ) ;
#672 = VERTEX_POINT ( 'NONE', #286 ) ;
#673 = DIRECTION ( 'NONE',  ( 0.000000000000000000, 1.000000000000000000, 0.000000000000000000 ) ) ;
#674 = ORIENTED_EDGE ( 'NONE', *, *, #645, .F. ) ;
#675 = DIRECTION ( 'NONE',  ( -6.938893903907275709E-15, 0.000000000000000000, 1.000000000000000000 ) ) ;
#676 = CARTESIAN_POINT ( 'NONE',  ( 122.4999999999999432, 7.500000000000000000, -7.500000000000049738 ) ) ;
#677 = EDGE_CURVE ( 'NONE', #59, #694, #900, .T. ) ;
#678 = VERTEX_POINT ( 'NONE', #136 ) ;
#679 = DIRECTION ( 'NONE',  ( -1.434038073474159164E-14, 0.000000000000000000, 1.000000000000000000 ) ) ;
#680 = VECTOR ( 'NONE', #702, 1000.000000000000000 ) ;
#681 = ORIENTED_EDGE ( 'NONE', *, *, #514, .T. ) ;
#682 = AXIS2_PLACEMENT_3D ( 'NONE', #422, #657, #283 ) ;
#683 = CARTESIAN_POINT ( 'NONE',  ( 0.000000000000000000, 23.80000000000000071, -19.00000000000000000 ) ) ;
#684 = VERTEX_POINT ( 'NONE', #886 ) ;
#685 = DIRECTION ( 'NONE',  ( -0.000000000000000000, -0.000000000000000000, -1.000000000000000000 ) ) ;
#686 = VERTEX_POINT ( 'NONE', #217 ) ;
#687 =( NAMED_UNIT ( * ) SI_UNIT ( $, .STERADIAN. ) SOLID_ANGLE_UNIT ( ) );
#688 = ORIENTED_EDGE ( 'NONE', *, *, #677, .T. ) ;
#689 = EDGE_CURVE ( 'NONE', #908, #562, #519, .T. ) ;
#690 = CARTESIAN_POINT ( 'NONE',  ( 107.0000000000001137, 15.00000000000000000, -22.00000000000000000 ) ) ;
#691 = CARTESIAN_POINT ( 'NONE',  ( 5.826869470343097592E-14, 15.00000000000000000, -19.49999999999999289 ) ) ;
#692 = EDGE_CURVE ( 'NONE', #660, #513, #342, .T. ) ;
#693 = EDGE_CURVE ( 'NONE', #595, #299, #144, .T. ) ;
#694 = VERTEX_POINT ( 'NONE', #534 ) ;
#695 = ORIENTED_EDGE ( 'NONE', *, *, #888, .T. ) ;
#696 = CARTESIAN_POINT ( 'NONE',  ( 129.9999999999999432, 7.500000000000000000, -7.499999999999998224 ) ) ;
#697 = LINE ( 'NONE', #619, #86 ) ;
#698 = VECTOR ( 'NONE', #759, 1000.000000000000000 ) ;
#699 = CARTESIAN_POINT ( 'NONE',  ( 1.185567161806745105E-14, 9.999999999999980460, -4.210871048468070477 ) ) ;
#700 = CARTESIAN_POINT ( 'NONE',  ( 5.000000000000030198, 15.00000000000000000, -0.4289321881345208864 ) ) ;
#701 = ORIENTED_EDGE ( 'NONE', *, *, #779, .T. ) ;
#702 = DIRECTION ( 'NONE',  ( -0.000000000000000000, -1.000000000000000000, -0.000000000000000000 ) ) ;
#703 = ORIENTED_EDGE ( 'NONE', *, *, #967, .F. ) ;
#704 = EDGE_CURVE ( 'NONE', #169, #730, #524, .T. ) ;
#705 = DIRECTION ( 'NONE',  ( 6.938893903907275709E-15, -0.000000000000000000, -1.000000000000000000 ) ) ;
#706 = ORIENTED_EDGE ( 'NONE', *, *, #715, .F. ) ;
#707 = AXIS2_PLACEMENT_3D ( 'NONE', #554, #559, #175 ) ;
#708 = DIRECTION ( 'NONE',  ( 0.000000000000000000, 0.000000000000000000, 1.000000000000000000 ) ) ;
#709 = AXIS2_PLACEMENT_3D ( 'NONE', #676, #972, #604 ) ;
#710 = VECTOR ( 'NONE', #536, 1000.000000000000000 ) ;
#711 = CARTESIAN_POINT ( 'NONE',  ( 95.00000000000011369, 16.89999999999999858, -20.00000000000000000 ) ) ;
#712 = CARTESIAN_POINT ( 'NONE',  ( 7.500000000000021316, 15.00000000000000000, -7.500000000000000888 ) ) ;
#713 = DIRECTION ( 'NONE',  ( 0.000000000000000000, 1.000000000000000000, 0.000000000000000000 ) ) ;
#714 = EDGE_CURVE ( 'NONE', #456, #330, #454, .T. ) ;
#715 = EDGE_CURVE ( 'NONE', #537, #456, #494, .T. ) ;
#716 = FACE_OUTER_BOUND ( 'NONE', #489, .T. ) ;
#717 =( BOUNDED_CURVE ( )  B_SPLINE_CURVE ( 3, ( #349, #568, #806, #505 ),
 .UNSPECIFIED., .F., .F. ) 
 B_SPLINE_CURVE_WITH_KNOTS ( ( 4, 4 ),
 ( 1.570796326794902775, 4.712388980384683457 ),
 .UNSPECIFIED. ) 
 CURVE ( )  GEOMETRIC_REPRESENTATION_ITEM ( )  RATIONAL_B_SPLINE_CURVE ( ( 1.000000000000000000, 0.3333333333333375337, 0.3333333333333375337, 1.000000000000000000 ) ) 
 REPRESENTATION_ITEM ( '' )  );
#718 = LINE ( 'NONE', #948, #651 ) ;
#719 = FACE_OUTER_BOUND ( 'NONE', #551, .T. ) ;
#720 = DIRECTION ( 'NONE',  ( 0.000000000000000000, 0.000000000000000000, 1.000000000000000000 ) ) ;
#721 = CARTESIAN_POINT ( 'NONE',  ( 122.4999999999999005, 0.000000000000000000, -7.499999999999995559 ) ) ;
#722 = AXIS2_PLACEMENT_3D ( 'NONE', #641, #112, #506 ) ;
#723 = ORIENTED_EDGE ( 'NONE', *, *, #260, .F. ) ;
#724 = VECTOR ( 'NONE', #791, 1000.000000000000000 ) ;
#725 = ADVANCED_BREP_SHAPE_REPRESENTATION ( 'Lid', ( #133, #306 ), #472 ) ;
#726 = CARTESIAN_POINT ( 'NONE',  ( 7.500000000000111022, 7.500000000000000000, -27.00000000000002487 ) ) ;
#727 = PLANE ( 'NONE',  #762 ) ;
#728 = DIRECTION ( 'NONE',  ( 0.000000000000000000, 1.000000000000000000, 0.000000000000000000 ) ) ;
#729 = CARTESIAN_POINT ( 'NONE',  ( 5.000000000000058620, 4.999999999999999112, -7.200000000000000178 ) ) ;
#730 = VERTEX_POINT ( 'NONE', #831 ) ;
#731 = CARTESIAN_POINT ( 'NONE',  ( 5.000000000000058620, 4.999999999999999112, -24.20000000000002416 ) ) ;
#732 = FACE_OUTER_BOUND ( 'NONE', #511, .T. ) ;
#733 = ORIENTED_EDGE ( 'NONE', *, *, #883, .T. ) ;
#734 = EDGE_CURVE ( 'NONE', #736, #126, #231, .T. ) ;
#735 = CARTESIAN_POINT ( 'NONE',  ( 5.826869470343097592E-14, 15.00000000000000000, -19.49999999999999289 ) ) ;
#736 = VERTEX_POINT ( 'NONE', #575 ) ;
#737 = CARTESIAN_POINT ( 'NONE',  ( 95.00000000000011369, 23.80000000000000071, -19.00000000000000000 ) ) ;
#738 = CARTESIAN_POINT ( 'NONE',  ( 5.826869470343097592E-14, 7.500000000000000000, -19.49999999999999289 ) ) ;
#739 = ORIENTED_EDGE ( 'NONE', *, *, #923, .T. ) ;
#740 = CARTESIAN_POINT ( 'NONE',  ( 0.5999999999999400258, 10.59999999999986109, -19.79999999999996518 ) ) ;
#741 = ORIENTED_EDGE ( 'NONE', *, *, #192, .F. ) ;
#742 = VECTOR ( 'NONE', #234, 1000.000000000000000 ) ;
#743 = AXIS2_PLACEMENT_3D ( 'NONE', #262, #301, #442 ) ;
#744 = CARTESIAN_POINT ( 'NONE',  ( 107.0000000000001137, 16.89999999999999858, -20.00000000000000000 ) ) ;
#745 = DIRECTION ( 'NONE',  ( 0.000000000000000000, 1.000000000000000000, 0.000000000000000000 ) ) ;
#746 = ORIENTED_EDGE ( 'NONE', *, *, #714, .T. ) ;
#747 = CARTESIAN_POINT ( 'NONE',  ( 122.5000000000000284, 7.500000000000000000, -19.50000000000002487 ) ) ;
#748 = ADVANCED_FACE ( 'NONE', ( #648 ), #359, .T. ) ;
#749 = ADVANCED_FACE ( 'NONE', ( #353 ), #496, .T. ) ;
#750 = CARTESIAN_POINT ( 'NONE',  ( 122.4999999999999858, 15.00000000000000000, -27.00000000000002487 ) ) ;
#751 = ORIENTED_EDGE ( 'NONE', *, *, #108, .F. ) ;
#752 = DIRECTION ( 'NONE',  ( 0.000000000000000000, 0.000000000000000000, 1.000000000000000000 ) ) ;
#753 = ORIENTED_EDGE ( 'NONE', *, *, #817, .F. ) ;
#754 = SPHERICAL_SURFACE ( 'NONE', #266, 7.500000000000000000 ) ;
#755 = FACE_OUTER_BOUND ( 'NONE', #765, .T. ) ;
#756 = ORIENTED_EDGE ( 'NONE', *, *, #44, .T. ) ;
#757 = DIRECTION ( 'NONE',  ( -0.000000000000000000, -1.000000000000000000, -0.000000000000000000 ) ) ;
#758 = EDGE_LOOP ( 'NONE', ( #912, #273, #278, #84 ) ) ;
#759 = DIRECTION ( 'NONE',  ( -1.000000000000000000, -0.000000000000000000, -0.000000000000000000 ) ) ;
#760 = VECTOR ( 'NONE', #352, 1000.000000000000000 ) ;
#761 = ORIENTED_EDGE ( 'NONE', *, *, #922, .F. ) ;
#762 = AXIS2_PLACEMENT_3D ( 'NONE', #52, #210, #517 ) ;
#763 = EDGE_CURVE ( 'NONE', #397, #532, #876, .T. ) ;
#764 = CARTESIAN_POINT ( 'NONE',  ( 5.000000000000058620, 4.999999999999999112, -5.000000000000000000 ) ) ;
#765 = EDGE_LOOP ( 'NONE', ( #351, #131, #739, #880 ) ) ;
#766 = LINE ( 'NONE', #915, #243 ) ;
#767 =( LENGTH_UNIT ( ) NAMED_UNIT ( * ) SI_UNIT ( .MILLI., .METRE. ) );
#768 = ORIENTED_EDGE ( 'NONE', *, *, #611, .F. ) ;
#769 = ORIENTED_EDGE ( 'NONE', *, *, #372, .T. ) ;
#770 = CARTESIAN_POINT ( 'NONE',  ( 5.000000000000052403, 15.00000000000000000, -7.500000000000056843 ) ) ;
#771 = CARTESIAN_POINT ( 'NONE',  ( 7.500000000000074607, 0.000000000000000000, -7.500000000000000000 ) ) ;
#772 = ORIENTED_EDGE ( 'NONE', *, *, #403, .F. ) ;
#773 = DIRECTION ( 'NONE',  ( -0.000000000000000000, 1.000000000000000000, -0.000000000000000000 ) ) ;
#774 = DIRECTION ( 'NONE',  ( -0.000000000000000000, -1.000000000000000000, -0.000000000000000000 ) ) ;
#775 = ORIENTED_EDGE ( 'NONE', *, *, #372, .F. ) ;
#776 = AXIS2_PLACEMENT_3D ( 'NONE', #580, #799, #569 ) ;
#777 = AXIS2_PLACEMENT_3D ( 'NONE', #138, #673, #834 ) ;
#778 = SURFACE_STYLE_FILL_AREA ( #163 ) ;
#779 = EDGE_CURVE ( 'NONE', #330, #781, #717, .T. ) ;
#780 = EDGE_CURVE ( 'NONE', #532, #686, #129, .T. ) ;
#781 = VERTEX_POINT ( 'NONE', #118 ) ;
#782 = DIRECTION ( 'NONE',  ( 1.000000000000000000, 0.000000000000000000, 0.000000000000000000 ) ) ;
#783 = ORIENTED_EDGE ( 'NONE', *, *, #692, .T. ) ;
#784 = FACE_OUTER_BOUND ( 'NONE', #73, .T. ) ;
#785 = DIRECTION ( 'NONE',  ( 0.000000000000000000, 0.5350520811843453295, 0.8448190755542281938 ) ) ;
#786 = ADVANCED_FACE ( 'NONE', ( #732 ), #114, .T. ) ;
#787 = ADVANCED_FACE ( 'NONE', ( #275 ), #268, .F. ) ;
#788 = CYLINDRICAL_SURFACE ( 'NONE', #722, 2.200000000000000178 ) ;
#789 = CIRCLE ( 'NONE', #69, 2.200000000000000622 ) ;
#790 = DIRECTION ( 'NONE',  ( 0.000000000000000000, 0.000000000000000000, 1.000000000000000000 ) ) ;
#791 = DIRECTION ( 'NONE',  ( 1.000000000000000000, 0.000000000000000000, 0.000000000000000000 ) ) ;
#792 = CARTESIAN_POINT ( 'NONE',  ( 6.620688480088885873E-14, 9.999999999999973355, -22.78912895153199614 ) ) ;
#793 = FACE_OUTER_BOUND ( 'NONE', #964, .T. ) ;
#794 = FACE_OUTER_BOUND ( 'NONE', #211, .T. ) ;
#795 = FACE_OUTER_BOUND ( 'NONE', #325, .T. ) ;
#796 = VERTEX_POINT ( 'NONE', #418 ) ;
#797 = CARTESIAN_POINT ( 'NONE',  ( 5.000000000000058620, 4.999999999999999112, -22.00000000000002132 ) ) ;
#798 = FACE_OUTER_BOUND ( 'NONE', #918, .T. ) ;
#799 = DIRECTION ( 'NONE',  ( 2.775557561562891351E-15, 0.000000000000000000, -1.000000000000000000 ) ) ;
#800 = VECTOR ( 'NONE', #391, 1000.000000000000000 ) ;
#801 = ORIENTED_EDGE ( 'NONE', *, *, #36, .T. ) ;
#802 = AXIS2_PLACEMENT_3D ( 'NONE', #938, #499, #432 ) ;
#803 = VECTOR ( 'NONE', #232, 1000.000000000000000 ) ;
#804 = DIRECTION ( 'NONE',  ( -1.000000000000000000, 0.000000000000000000, -2.775557561562891351E-15 ) ) ;
#805 = EDGE_CURVE ( 'NONE', #908, #686, #718, .T. ) ;
#806 = CARTESIAN_POINT ( 'NONE',  ( 0.6000000000000926814, 10.60000000000006359, -2.800000000000041123 ) ) ;
#807 = ORIENTED_EDGE ( 'NONE', *, *, #152, .F. ) ;
#808 = CARTESIAN_POINT ( 'NONE',  ( 5.826869470343097592E-14, 9.999999999999980460, -19.49999999999999289 ) ) ;
#809 = ORIENTED_EDGE ( 'NONE', *, *, #858, .F. ) ;
#810 = DIRECTION ( 'NONE',  ( 0.000000000000000000, 0.000000000000000000, 1.000000000000000000 ) ) ;
#811 = DIRECTION ( 'NONE',  ( 1.000000000000000000, 0.000000000000000000, 6.938893903907222067E-15 ) ) ;
#812 = ORIENTED_EDGE ( 'NONE', *, *, #666, .T. ) ;
#813 = CARTESIAN_POINT ( 'NONE',  ( 107.0000000000001137, 16.89999999999999858, -20.00000000000000000 ) ) ;
#814 =( BOUNDED_CURVE ( )  B_SPLINE_CURVE ( 3, ( #198, #792, #423, #185 ),
 .UNSPECIFIED., .F., .F. ) 
 B_SPLINE_CURVE_WITH_KNOTS ( ( 4, 4 ),
 ( 0.000000000000000000, 1.230959417340779183 ),
 .UNSPECIFIED. ) 
 CURVE ( )  GEOMETRIC_REPRESENTATION_ITEM ( )  RATIONAL_B_SPLINE_CURVE ( ( 1.000000000000000000, 0.8776643872851497274, 0.8776643872851497274, 1.000000000000000000 ) ) 
 REPRESENTATION_ITEM ( '' )  );
#815 = EDGE_LOOP ( 'NONE', ( #966, #906, #612, #775 ) ) ;
#816 = CARTESIAN_POINT ( 'NONE',  ( 95.00000000000011369, 16.89999999999999858, -20.00000000000000000 ) ) ;
#817 = EDGE_CURVE ( 'NONE', #322, #584, #388, .T. ) ;
#818 = LINE ( 'NONE', #683, #267 ) ;
#819 = VERTEX_POINT ( 'NONE', #340 ) ;
#820 = ADVANCED_FACE ( 'NONE', ( #794 ), #592, .T. ) ;
#821 = VECTOR ( 'NONE', #478, 1000.000000000000000 ) ;
#822 = DIRECTION ( 'NONE',  ( 2.988138189919538562E-15, 0.000000000000000000, -1.000000000000000000 ) ) ;
#823 = ADVANCED_FACE ( 'NONE', ( #194 ), #653, .T. ) ;
#824 = ORIENTED_EDGE ( 'NONE', *, *, #922, .T. ) ;
#825 = AXIS2_PLACEMENT_3D ( 'NONE', #668, #193, #804 ) ;
#826 = AXIS2_PLACEMENT_3D ( 'NONE', #377, #225, #151 ) ;
#827 = DIRECTION ( 'NONE',  ( 0.000000000000000000, 0.000000000000000000, 1.000000000000000000 ) ) ;
#828 = ORIENTED_EDGE ( 'NONE', *, *, #832, .T. ) ;
#829 = PLANE ( 'NONE',  #533 ) ;
#830 = ORIENTED_EDGE ( 'NONE', *, *, #911, .F. ) ;
#831 = CARTESIAN_POINT ( 'NONE',  ( 122.4999999999999005, 15.00000000000000000, 4.336808689942017736E-15 ) ) ;
#832 = EDGE_CURVE ( 'NONE', #955, #464, #344, .T. ) ;
#833 = APPLICATION_CONTEXT ( 'automotive_design' ) ;
#834 = DIRECTION ( 'NONE',  ( 0.000000000000000000, -0.000000000000000000, 1.000000000000000000 ) ) ;
#835 = ORIENTED_EDGE ( 'NONE', *, *, #780, .F. ) ;
#836 = DIRECTION ( 'NONE',  ( 0.000000000000000000, -0.000000000000000000, 1.000000000000000000 ) ) ;
#837 = ORIENTED_EDGE ( 'NONE', *, *, #369, .F. ) ;
#838 = LINE ( 'NONE', #878, #365 ) ;
#839 = LINE ( 'NONE', #394, #449 ) ;
#840 = CYLINDRICAL_SURFACE ( 'NONE', #825, 7.500000000000000000 ) ;
#841 = CARTESIAN_POINT ( 'NONE',  ( 130.0000000000000284, 15.00000000000000000, -19.49999999999991829 ) ) ;
#842 = AXIS2_PLACEMENT_3D ( 'NONE', #341, #563, #930 ) ;
#843 = ADVANCED_FACE ( 'NONE', ( #798 ), #727, .F. ) ;
#844 = ORIENTED_EDGE ( 'NONE', *, *, #859, .T. ) ;
#845 = CARTESIAN_POINT ( 'NONE',  ( 5.000000000000030198, 15.00000000000000000, -0.4289321881345208864 ) ) ;
#846 = EDGE_LOOP ( 'NONE', ( #148, #102, #904, #544 ) ) ;
#847 = LINE ( 'NONE', #556, #560 ) ;
#848 = CARTESIAN_POINT ( 'NONE',  ( 95.00000000000011369, 18.80000000000000071, -22.00000000000000000 ) ) ;
#849 = ORIENTED_EDGE ( 'NONE', *, *, #236, .T. ) ;
#850 = CYLINDRICAL_SURFACE ( 'NONE', #667, 2.200000000000000178 ) ;
#851 = CARTESIAN_POINT ( 'NONE',  ( 122.5000000000000426, 7.500000000000000000, -19.50000000000002487 ) ) ;
#852 = ADVANCED_FACE ( 'NONE', ( #643 ), #935, .F. ) ;
#853 = ORIENTED_EDGE ( 'NONE', *, *, #645, .T. ) ;
#854 = AXIS2_PLACEMENT_3D ( 'NONE', #735, #950, #822 ) ;
#855 = ORIENTED_EDGE ( 'NONE', *, *, #392, .F. ) ;
#856 = APPLICATION_PROTOCOL_DEFINITION ( 'draft international standard', 'automotive_design', 1998, #910 ) ;
#857 = DIRECTION ( 'NONE',  ( 0.000000000000000000, -0.000000000000000000, 1.000000000000000000 ) ) ;
#858 = EDGE_CURVE ( 'NONE', #176, #302, #366, .T. ) ;
#859 = EDGE_CURVE ( 'NONE', #28, #445, #969, .T. ) ;
#860 = ORIENTED_EDGE ( 'NONE', *, *, #294, .F. ) ;
#861 = DIRECTION ( 'NONE',  ( 0.000000000000000000, 1.000000000000000000, 0.000000000000000000 ) ) ;
#862 = DIRECTION ( 'NONE',  ( 1.000000000000000000, -0.000000000000000000, -0.000000000000000000 ) ) ;
#863 = AXIS2_PLACEMENT_3D ( 'NONE', #350, #728, #263 ) ;
#864 = DIRECTION ( 'NONE',  ( -1.000000000000000000, 0.000000000000000000, 0.000000000000000000 ) ) ;
#865 = CARTESIAN_POINT ( 'NONE',  ( 95.00000000000011369, 23.80000000000000071, -13.99999999999999822 ) ) ;
#866 = VECTOR ( 'NONE', #83, 1000.000000000000000 ) ;
#867 = DIRECTION ( 'NONE',  ( 0.000000000000000000, 1.000000000000000000, 0.000000000000000000 ) ) ;
#868 = DIRECTION ( 'NONE',  ( 0.000000000000000000, 1.000000000000000000, 0.000000000000000000 ) ) ;
#869 = DIRECTION ( 'NONE',  ( -0.000000000000000000, -1.000000000000000000, -0.000000000000000000 ) ) ;
#870 = FACE_OUTER_BOUND ( 'NONE', #960, .T. ) ;
#871 = DIRECTION ( 'NONE',  ( -6.938893903907275709E-15, 0.000000000000000000, 1.000000000000000000 ) ) ;
#872 = CARTESIAN_POINT ( 'NONE',  ( 107.0000000000001137, 20.80000000000000426, -22.00000000000000000 ) ) ;
#873 = EDGE_LOOP ( 'NONE', ( #926, #756, #949, #15 ) ) ;
#874 = EDGE_CURVE ( 'NONE', #819, #445, #289, .T. ) ;
#875 = DIRECTION ( 'NONE',  ( 1.000000000000000000, 0.000000000000000000, 0.000000000000000000 ) ) ;
#876 = LINE ( 'NONE', #197, #485 ) ;
#877 = ORIENTED_EDGE ( 'NONE', *, *, #327, .F. ) ;
#878 = CARTESIAN_POINT ( 'NONE',  ( 122.5000000000000284, 0.000000000000000000, -19.50000000000002487 ) ) ;
#879 = CIRCLE ( 'NONE', #186, 2.200000000000000622 ) ;
#880 = ORIENTED_EDGE ( 'NONE', *, *, #734, .T. ) ;
#881 = CIRCLE ( 'NONE', #709, 7.500000000000007105 ) ;
#882 = CARTESIAN_POINT ( 'NONE',  ( 5.000000000000058620, 4.999999999999999112, -2.799999999999999822 ) ) ;
#883 = EDGE_CURVE ( 'NONE', #678, #655, #466, .T. ) ;
#884 = CARTESIAN_POINT ( 'NONE',  ( 7.500000000000111022, 15.00000000000000000, -27.00000000000002487 ) ) ;
#885 = EDGE_LOOP ( 'NONE', ( #256, #379, #555, #287 ) ) ;
#886 = CARTESIAN_POINT ( 'NONE',  ( 107.0000000000001137, 23.80000000000000071, -19.00000000000000000 ) ) ;
#887 = ORIENTED_EDGE ( 'NONE', *, *, #441, .F. ) ;
#888 = EDGE_CURVE ( 'NONE', #678, #322, #616, .T. ) ;
#889 = PLANE ( 'NONE',  #67 ) ;
#890 = CARTESIAN_POINT ( 'NONE',  ( 95.00000000000011369, 18.80000000000000071, -13.99999999999999822 ) ) ;
#891 = ORIENTED_EDGE ( 'NONE', *, *, #714, .F. ) ;
#892 = CARTESIAN_POINT ( 'NONE',  ( 129.9999999999999432, 15.00000000000000000, -7.499999999999998224 ) ) ;
#893 = ORIENTED_EDGE ( 'NONE', *, *, #279, .T. ) ;
#894 = DIRECTION ( 'NONE',  ( -0.000000000000000000, -1.000000000000000000, -0.000000000000000000 ) ) ;
#895 = DIRECTION ( 'NONE',  ( -0.000000000000000000, -1.000000000000000000, -0.000000000000000000 ) ) ;
#896 = ORIENTED_EDGE ( 'NONE', *, *, #315, .T. ) ;
#897 = CARTESIAN_POINT ( 'NONE',  ( 7.500000000000055955, 7.500000000000000000, -19.50000000000002487 ) ) ;
#898 = AXIS2_PLACEMENT_3D ( 'NONE', #95, #18, #27 ) ;
#899 = VECTOR ( 'NONE', #785, 1000.000000000000000 ) ;
#900 = CIRCLE ( 'NONE', #625, 7.500000000000007105 ) ;
#901 = PLANE ( 'NONE',  #468 ) ;
#902 = ORIENTED_EDGE ( 'NONE', *, *, #237, .T. ) ;
#903 = DIRECTION ( 'NONE',  ( -0.000000000000000000, -1.000000000000000000, -0.000000000000000000 ) ) ;
#904 = ORIENTED_EDGE ( 'NONE', *, *, #167, .F. ) ;
#905 = DIRECTION ( 'NONE',  ( 1.000000000000000000, 0.000000000000000000, 0.000000000000000000 ) ) ;
#906 = ORIENTED_EDGE ( 'NONE', *, *, #190, .F. ) ;
#907 = DIRECTION ( 'NONE',  ( -1.000000000000000000, 0.000000000000000000, -6.938893903907275709E-15 ) ) ;
#908 = VERTEX_POINT ( 'NONE', #451 ) ;
#909 = DIRECTION ( 'NONE',  ( -0.000000000000000000, 1.000000000000000000, -0.000000000000000000 ) ) ;
#910 = APPLICATION_CONTEXT ( 'automotive_design' ) ;
#911 = EDGE_CURVE ( 'NONE', #513, #660, #789, .T. ) ;
#912 = ORIENTED_EDGE ( 'NONE', *, *, #647, .F. ) ;
#913 = CARTESIAN_POINT ( 'NONE',  ( 7.500000000000021316, 15.00000000000000000, -7.500000000000000888 ) ) ;
#914 = CARTESIAN_POINT ( 'NONE',  ( 5.000000000000058620, 4.999999999999999112, -22.00000000000002132 ) ) ;
#915 = CARTESIAN_POINT ( 'NONE',  ( 122.5000000000000426, 0.000000000000000000, -19.50000000000002487 ) ) ;
#916 = CARTESIAN_POINT ( 'NONE',  ( 95.00000000000011369, 23.80000000000000071, -13.99999999999999822 ) ) ;
#917 = AXIS2_PLACEMENT_3D ( 'NONE', #585, #459, #965 ) ;
#918 = EDGE_LOOP ( 'NONE', ( #607, #296, #723, #334 ) ) ;
#919 = LINE ( 'NONE', #395, #20 ) ;
#920 = LINE ( 'NONE', #405, #100 ) ;
#921 = VERTEX_POINT ( 'NONE', #738 ) ;
#922 = EDGE_CURVE ( 'NONE', #376, #397, #457, .T. ) ;
#923 = EDGE_CURVE ( 'NONE', #908, #736, #222, .T. ) ;
#924 = CARTESIAN_POINT ( 'NONE',  ( 107.0000000000001137, 15.00000000000000000, -22.00000000000000000 ) ) ;
#925 = FILL_AREA_STYLE_COLOUR ( '', #161 ) ;
#926 = ORIENTED_EDGE ( 'NONE', *, *, #693, .T. ) ;
#927 = DIRECTION ( 'NONE',  ( 6.938893903907275709E-15, -0.000000000000000000, -1.000000000000000000 ) ) ;
#928 = ORIENTED_EDGE ( 'NONE', *, *, #539, .T. ) ;
#929 = SHAPE_DEFINITION_REPRESENTATION ( #50, #725 ) ;
#930 = DIRECTION ( 'NONE',  ( 0.000000000000000000, 0.000000000000000000, -1.000000000000000000 ) ) ;
#931 = ADVANCED_FACE ( 'NONE', ( #602, #65 ), #829, .T. ) ;
#932 = ORIENTED_EDGE ( 'NONE', *, *, #192, .T. ) ;
#933 = CARTESIAN_POINT ( 'NONE',  ( 7.500000000000055955, 15.00000000000000000, -27.00000000000002487 ) ) ;
#934 = CARTESIAN_POINT ( 'NONE',  ( 5.000000000000058620, 4.999999999999999112, -22.00000000000002132 ) ) ;
#935 = PLANE ( 'NONE',  #743 ) ;
#936 = DIRECTION ( 'NONE',  ( 0.000000000000000000, 1.000000000000000000, 0.000000000000000000 ) ) ;
#937 = CIRCLE ( 'NONE', #529, 7.499999999999996447 ) ;
#938 = CARTESIAN_POINT ( 'NONE',  ( 0.000000000000000000, 20.80000000000000426, -19.00000000000000000 ) ) ;
#939 = DIRECTION ( 'NONE',  ( 1.000000000000000000, 0.000000000000000000, 0.000000000000000000 ) ) ;
#940 = AXIS2_PLACEMENT_3D ( 'NONE', #206, #512, #277 ) ;
#941 = CARTESIAN_POINT ( 'NONE',  ( 7.500000000000021316, 7.500000000000000000, -7.500000000000000888 ) ) ;
#942 = EDGE_CURVE ( 'NONE', #55, #169, #453, .T. ) ;
#943 = DIRECTION ( 'NONE',  ( 0.000000000000000000, 0.000000000000000000, -1.000000000000000000 ) ) ;
#944 = LINE ( 'NONE', #865, #5 ) ;
#945 = ADVANCED_FACE ( 'NONE', ( #531 ), #669, .T. ) ;
#946 = EDGE_LOOP ( 'NONE', ( #663, #173 ) ) ;
#947 = DIRECTION ( 'NONE',  ( -1.000000000000000000, 0.000000000000000000, 0.000000000000000000 ) ) ;
#948 = CARTESIAN_POINT ( 'NONE',  ( 107.0000000000001137, 18.80000000000000071, -20.00000000000000000 ) ) ;
#949 = ORIENTED_EDGE ( 'NONE', *, *, #36, .F. ) ;
#950 = DIRECTION ( 'NONE',  ( 1.000000000000000000, -0.000000000000000000, 2.988138189919538562E-15 ) ) ;
#951 = VERTEX_POINT ( 'NONE', #88 ) ;
#952 = CARTESIAN_POINT ( 'NONE',  ( 122.4999999999999005, 7.500000000000000000, 4.336808689942017736E-15 ) ) ;
#953 = VECTOR ( 'NONE', #106, 1000.000000000000000 ) ;
#954 = CARTESIAN_POINT ( 'NONE',  ( 7.500000000000021316, 7.500000000000000000, -7.500000000000000888 ) ) ;
#955 = VERTEX_POINT ( 'NONE', #72 ) ;
#956 = AXIS2_PLACEMENT_3D ( 'NONE', #941, #132, #56 ) ;
#957 = FACE_OUTER_BOUND ( 'NONE', #184, .T. ) ;
#958 = ADVANCED_FACE ( 'NONE', ( #963 ), #229, .F. ) ;
#959 = VECTOR ( 'NONE', #895, 1000.000000000000000 ) ;
#960 = EDGE_LOOP ( 'NONE', ( #137, #360, #896, #809, #407, #97, #844, #658 ) ) ;
#961 = EDGE_CURVE ( 'NONE', #28, #684, #156, .T. ) ;
#962 = DIRECTION ( 'NONE',  ( 0.000000000000000000, 0.000000000000000000, 1.000000000000000000 ) ) ;
#963 = FACE_OUTER_BOUND ( 'NONE', #873, .T. ) ;
#964 = EDGE_LOOP ( 'NONE', ( #877, #3, #783, #199 ) ) ;
#965 = DIRECTION ( 'NONE',  ( 0.000000000000000000, 0.000000000000000000, -1.000000000000000000 ) ) ;
#966 = ORIENTED_EDGE ( 'NONE', *, *, #237, .F. ) ;
#967 = EDGE_CURVE ( 'NONE', #684, #461, #818, .T. ) ;
#968 = CARTESIAN_POINT ( 'NONE',  ( 122.5000000000000426, 15.00000000000000000, -19.50000000000002487 ) ) ;
#969 = LINE ( 'NONE', #134, #591 ) ;
#970 = ORIENTED_EDGE ( 'NONE', *, *, #327, .T. ) ;
#971 = CARTESIAN_POINT ( 'NONE',  ( 5.000000000000088818, 15.00000000000000000, -19.80000000000002203 ) ) ;
#972 = DIRECTION ( 'NONE',  ( -6.938893903907222067E-15, 0.000000000000000000, 1.000000000000000000 ) ) ;
ENDSEC;
END-ISO-10303-21;
